<svg baseProfile="basic" xmlns="http://www.w3.org/2000/svg" width="119.712" height="119.953" viewBox="0 0 119.712 119.953"><path d="M92.52 100.644c.573-1.481.322-2.548-1.05-4.319-.687.139-1.006.521-.914 1.254.154 1.235.267 2.479.392 3.716.728.305 1.266.141 1.572-.651zm1.824-13.091c.111-.227.029-.738-.145-.866-.184-.131-.627-.038-.892.09-1.507.741-2.125 2.091-2.361 3.655-.046.302.022.703.198.931.178.227.559.298.967.493.778-1.483 1.538-2.878 2.233-4.303zm-5.115 7.169c-.835 1.182-1.487 2.153-1.736 3.333-.093.44.173.592.683.479.498-.916 1.053-1.874 1.525-2.873.074-.155-.235-.492-.472-.939zm5.499 5.138l1.644-1.05-2.16-.975c-.31.865-.44 1.552.516 2.025zm-5.123-.155c-.627 1.003-.219 1.676.702 2.324l.552-.698c-.947-.085-.697-1.167-1.254-1.626zm7.996-1.742c.237.104.666-.229 1.153-.42l-1.964-.994c-.407.828.258 1.167.811 1.414zm.285 1.824c-2.52.757-4.693 2.198-7.105 3.494l.86 1.599c1.31-.869 2.503-1.665 3.696-2.453 1.135-.75 2.746-.874 3.373-2.482-.356-.074-.622-.22-.824-.158zm-8.607-12.194l-1.09 1.127c.399.264.657.456.937.614.133.075.303.083.644.167.317-1.535.256-1.805-.491-1.908zm-3.125 2.524c.653.711 1.107 1.39 1.698 1.987 1.755 1.778 3.974 2.877 6.045 4.19.887.559 1.857.579 2.817.221-2.024-.692-3.712-1.869-5.285-3.317-1.362-1.255-2.937-2.282-4.441-3.378-.1-.071-.409.14-.834.297zm-6.859-15.168c-.06.048-.179.109-.172.146.022.132.09.259.139.387.067-.122.144-.24.188-.371l-.155-.162zm-6.432 12.121c-.048.043-.032.157-.046.239l.435.053-.04-.533c-.12.076-.244.148-.349.241zm5.055-5.683c.963 1.665 2.633 2.657 3.938 4.001.249.255.703.315 1.296.566-1.339-2.261-4.172-5.293-5.737-6.109.202.635.271 1.137.503 1.542zm6.977 9.933c-1.102.688-1.062 2.46-1.943 3.812l2.571 2.163c1.378-.833 1.796-2.178 2.509-3.25-1.105-.959-2.043-1.773-3.137-2.725zm-9.631-4.985c.704-.832 1.423-1.658 2.023-2.56.511-.763.276-1.132-1.053-1.904-.43.694-.871 1.391-1.298 2.099-.555.916-1.098 1.839-1.633 2.773.729.283 1.418.237 1.961-.408zm13.648-10.9c.224-.604.306-1.258.52-2.167l-1.96.44c-.326 1.837-1.513 3.254-1.699 5.137-.201 2.012.42 3.685 1.312 5.554 1.086-.462 1.43-1.121 1.105-1.944-.366-.929-.261-1.827-.197-2.772.099-1.473.416-2.871.919-4.248zm-9.731 8.925c-.276-.326-.997-.112-1.337.359-.503.69-.916 1.447-1.45 2.111-.557.698-1.211 1.315-1.927 2.077l5.025 3.069 3.347-3.593c-.892-1.757-2.518-2.672-3.658-4.023zm-24.268-10.579l-.237-.517-.605.356c.103.153.207.431.307.429.184 0 .363-.173.535-.268zm13.378-9.021c.241-.814.515-1.651-.163-2.43-.982-.353-1.82-.044-2.796.738.441 1.092.762 2.148 1.655 2.83.802-.047 1.13-.54 1.304-1.138zm1.048 6.488c-2.112-2.765-4.016-5.267-5.929-7.756-.098-.129-.273-.263-.419-.273-.228-.013-.464.079-.865.159.234.449.369.835.604 1.145 1.027 1.358 2.067 2.71 3.133 4.042.744.929 1.515 1.841 2.326 2.711.126.134.54-.001 1.15-.028zm30.099 22.577c-.725-.161-1.495-.273-2.227-.199-.405.041-.767.485-1.245.815.925 1.317 2.066 1.642 3.631 1.651.112-.604.264-1.023.245-1.428-.012-.298-.207-.795-.404-.839zm-29.382-34.812c-2.245.478-4.509.865-6.764 1.305-.662.13-1.319.292-1.957.508-.115.041-.12.414-.198.716 1.67.253 3.26.209 4.781-.221 2.115-.6 4.276-1.124 6.203-2.364l-.479-.729c-.548.28-1.039.667-1.586.785zm1.692 6.684c-.143-1.225-.63-2.423-1.066-3.596-.137-.359-.598-.602-1.176-.136.344 1.847.235 3.708-1.051 5.352-.341.434.34 1.233.931 1.17 1.376-.148 2.53-1.338 2.362-2.79zm3.007 5.264c.626-2.127.683-2.145.242-3.638-.602-2.044-1.277-4.064-1.981-6.076-.215-.611-.687-.693-1.229-.044.294 1.157.601 2.392.927 3.621.325 1.233.149 2.388-.575 3.419-.482.688-1.071 1.3-1.618 1.957 1.083 1.821 2.666.874 4.234.761zm-9.732.255c.286.395.602.467.962.11.032-.033.04-.142.011-.176-.351-.44-.662-.23-.973.066zm35.046 14.374c-.475-.136-.876-.512-1.337-.719-.931-.421-1.87-.836-2.833-1.188-1.763-.642-3.616-.7-5.211.25-1.971 1.173-3.869 2.535-5.573 4.06-.994.89-1.907 1.906-2.906 2.825-.545.506-.945 1.191-1.32 1.848-.092.16.166.52.265.794 1.271-.468 1.747-1.487 2.476-2.292 2.468-2.722 5.063-5.34 8.93-6.029.323-.058.626-.211.831-.281 1.869 1.013 3.737 1.535 5.698 1.68.822.059 1.716.132 2.811-.921-.915-.001-1.405.095-1.831-.027zm-6.102 4.97c-.547.884-.794 1.869-.12 3.265 2.048-1.658 4.29-1.315 6.537-1.298l.83-4.625c-1.769-.185-3.357-.35-5.038-.523-.768 1.094-1.547 2.1-2.209 3.181zm5.067-6.789c.953 0 1.542.063 2.105-.027.292-.049.583-.331.8-.576.152-.175.213-.459.258-.704.114-.613-.01-1.312-.396-2.386-1.133.945-1.988 2.041-2.767 3.693zm-8.393-10.62c-1.144 3.059-2.489 6.076-.884 9.562 1.729-.313 3.313-1.022 5.068-.8.427.054 1.041-.226 1.345-.56 1.728-1.885 3.474-3.766 4.796-6.104-.753-2.012-2.397-3.414-3.439-5.164l-6.886 3.066zm9.01-3.724c.082-.331.05-.606-.398-.561-.098.009-.277.239-.252.316.111.336.325.485.65.245zm-2.201 13.177c1.561-1.465 2.97-2.656 3.737-4.455-2.57 1.858-3.127 2.534-3.737 4.455zm12.405-21.298v-1.563c-1.984-.058-3.58.455-5 1.729-1.584 1.423-3.265 2.741-4.935 4.062-.456.363-1.014.617-1.561.836-2.936 1.172-5.89 2.299-8.82 3.486-.759.306-1.451.775-2.324 1.252-.865 0-1.975-.131-3.042.024-3.776.548-7.531 1.221-11.363 1.306-2.817.064-5.624.236-8.433.582-4.535.555-8.916 1.521-12.863 3.894-1.733 1.046-3.431 2.196-4.716 3.977.302.12.581.336.708.269.9-.486 1.739-1.087 2.651-1.547 2.97-1.5 5.962-2.959 8.954-4.425.534-.26 1.092-.46 1.642-.684 2.697-1.101 5.494-1.098 8.333-.821.917.092 1.854-.022 2.781-.04.506-.01 1.012-.006 1.517-.024 2.045-.07 4.09-.143 6.137-.216 1.374-.823 2.809-.603 4.284-.353.741.129 1.529.064 2.209-.434.254-.188.613-.319.925-.324 2.064-.035 3.835-1.313 5.896-1.356.238-.004.484-.155.71-.269 2.208-1.129 4.211-2.575 6.241-3.983 2.779-1.925 5.775-4.198 9.666-5.059.142-.031.256-.2.403-.319zm-28.076 13.38c-.098-.062-.4-.005-.453.087-.687 1.225-1.366 2.458-1.995 3.712-.065.133.158.415.322.81 1.043-.527 1.43-1.281 1.846-2.002.372-.649.834-1.288.69-2.097-.032-.193-.233-.393-.41-.51zm25.792-44.585c.078 1.994-.675 3.637-1.833 5.171-.409.543-.8 1.104-1.16 1.679-.376.604-.149.935.531 1 3.197-3.589 3.626-4.451 4.12-8.375-1.368-.549-1.695-.465-1.658.525zm-60.282 44.44c-.131-1.174-.411-1.333-1.856-1.114-.506 3.329-.46 4.011.478 6.004l1.777-1.091c-.15-1.442-.266-2.621-.399-3.799zm1.57-.342c-.457 1.095-.463 2 .104 2.913.703-.374 1.371-.605 1.28-1.483-.072-.74-.364-1.277-1.384-1.43zm2.133-1.949c.786.224 1.004 1.379 1.859.791.712-.492.367-1.172.117-1.776-2.088-.761-4.448-.34-6.513-1.773-.498 2.176-.279 2.393 1.977 2.274l.227.452c.516 1.059.732 1.128 1.668.514.264-.171.508-.368.665-.482zm-3.326 10.573c1.243 2.222 1.277 2.254 2.88 2.995.463-1.628.437-1.715-1.249-3.859l-1.631.864zm3.596 4.317l1.136.935-.114-1.115-1.022.18zm.424-4.697c.855-.733.859-.735-.083-1.917-.76.577-.76.577.083 1.917zm50.488-54.234c.226-.452.5-.921.545-1.404.031-.325-.294-.687-.659-1.453-.627 1.05-1.039 1.596-1.297 2.204-.321.758.024 1.778.495 1.735.644-.059.7-.654.916-1.082zm-45.211 84.319c-.061 1.094-.114 2.196-.086 3.293.034 1.292.352 2.526 1.294 3.485.258.263.654.394 1.097.646 1.08-3.19.338-6.185.237-9.336-2.338.117-2.442.192-2.542 1.912zm4.275-44.365l1.867-1.091c-.481-.785-.761-1.657-1.867-1.983-.133 1.069-.434 1.998 0 3.074zm44.981-39.203c-.034-.296-.283-.646-.534-.823-.475-.334-1.024-.565-1.497-.811-1.475.958-.928 3.286-3.115 3.724.453 1.996.309 3.872 1.948 5.086 1.401-.318 1.717-1.642 2.446-2.529 1.122-1.365.915-3.035.752-4.647zm-52.067 51.372c.058.454-.305.954-.435 1.442-.447 1.702-1.367 3.276-1.374 5.094l1.417-.507c1.073-2.576 2.263-5.106 2.586-8.171-1.234.441-2.404.503-2.194 2.142zm58.774-38.683l-.157-.376-.161.146c.038.139.107.267.17.4l.148-.17zm-12.939-17.959c-.282.665-.096 1.109.531 1.438.454-.659.23-1.095-.531-1.438zm-17.883 85.38c-1.174 1.331-2.356 2.654-3.48 4.027-.099.128.168.549.261.83 2.398-2.131 3.53-3.724 3.467-4.887-.084.008-.208-.019-.248.03zm-13.271-6.566l1.074-.887c-.104-.319-.137-.589-.267-.785-1.354-2.041-1.487-4.292-1.175-6.623.066-.504.208-1.002.286-1.503.23-1.494.144-1.594-1.845-2.182-.272 2.204-1.196 4.107-.757 6.204.44 2.1 1.393 3.916 2.684 5.776zm-10.718-23.99c-.239.286-.462.451-.534.667-.563 1.69-1.103 3.386-1.634 5.09-.072.234-.094.51-.045.75.165.825.333 1.649.564 2.456.588 2.055 2.372 3.466 4.36 3.147 1.65-.267 3.354-.499 5.049-1.292-.185-.514-.229-1.065-.521-1.382-2.477-2.705-4.479-5.751-6.467-8.811-.162-.255-.483-.399-.772-.625zm13.519 21.733c1.608-1.068 2.404-2.768 3.477-4.394-1.582-1.243-3.301-2.132-5.106-3.253-1.113 4.204-.859 5.283 1.629 7.647zm2.006-23.055c-.199-.611-.336-1.286-.709-1.781-.354-.476-.893-.333-1.369.383.414.808.908 1.437 1.644 1.815.217-.201.457-.355.434-.417zm-1.05 1.769c-1.004-1.173-1.924-2.291-2.904-3.355-.266-.286-.693-.517-1.076-.582-1.009-.169-2.033-.287-3.052-.326-1.097-.041-2.148.195-3.035.752 0 .32-.069.535.008.644 1.654 2.281 3.31 4.555 5 6.808.295.394.737.684 1.214 1.113 2.275-1.146 2.495-3.436 3.845-5.054zm4.819-2.077c.291-.609.44-1.302-.083-1.947-.243 0-.539-.083-.727.021-.274.153-.532.406-.693.678-.782 1.325-1.5 2.681-2.29 4.001-1.129 1.884-2.296 3.742-3.545 5.763l1.432 1.389c.605-.919.962-1.605 1.45-2.174 1.98-2.295 3.178-5.037 4.456-7.731zm-6.574 25.772c-2.354 1.352-4.678 2.726-7.554 3.094l.583 1.689c1.6.305 2.917-.235 4.076-.823 2.846-1.452 5.852-2.766 7.47-5.84.272-.516.767-.906 1.133-1.379.258-.334.52-.686.691-1.067.297-.66.099-1.142-.741-1.375-1.223 1.344-2.467 2.724-3.728 4.089-.572.617-1.164 1.17-1.93 1.612zm5.71 12.131c.581-.033.91.035 1.155-.081.409-.195.769-.494 1.152-.753-1 .017-1.024.028-2.307.834zm3.216-5.701c-1.732.153-3.39.302-5.095.457.148 1.458.631 2.575 1.548 3.664 1.148-1.452 3.161-1.942 3.547-4.121zm-8.559-2.76c-.908.082-2.638 1.191-3.423 2.196.794 0 1.552.013 2.305 0 1.697-.03 1.705-.036 3.021-1.221-.49-.604-1.063-1.06-1.903-.975zm-4.127-3.565c-1.182-2.612-2.251-5.26-2.32-8.158l-5.589.827c0 .244-.061.442.008.57 1.317 2.476 2.333 5.078 3.256 7.721.155.438.537.798.873 1.281 1.156-1.053 2.961-.67 3.772-2.241zm18.535-28.25c-.771-.477-1.451-.396-1.82.295-1.035 1.943-1.972 3.939-2.978 5.968 1 2.15 2.833 3.558 4.794 5.194.256-.398.521-.627.486-.796-.098-.491-.29-.969-.496-1.432-.978-2.198-1.12-4.442-.474-6.761.225-.8.328-1.634.488-2.468zm-20.922 18.476c.311-.208.52-.656.643-1.036.085-.256-.066-.588-.123-.956-1.339.228-2.51.478-3.689.613-2.69.306-4.297-.088-5.913-2.956l-.768-1.335c-1.096 1.974-.869 2.646 1.75 5.586 1.223.304 2.446.663 3.691.905 1.559.299 3.068.063 4.409-.821zm9.978 13.058c-.406.047-.849.206-1.172.447-.209.155-.24.548-.359.821.504.774 1.206 1.122 2.141 1.024 3.214-.333 6.429-.632 9.642-.995.627-.07 1.229-.343 1.993-.573-.322-.524-.505-.905-.762-1.225-.15-.187-.403-.349-.634-.392-.495-.09-1.016-.157-1.514-.114-1.009.091-2.01.294-3.021.397-2.104.221-4.213.383-6.314.61zm-.51-1.127c2.685-.235 5.126-.444 7.542-.659l1.169-2.104c-1.101-1.776-2.518-3.001-4.351-3.806-.701.944-1.204 1.869-1.937 2.558-1.085 1.026-1.785 2.23-2.423 4.011zm-48.08-26.989l3.567 6.812c1.076-.683 1.267-.936 1.092-1.904-.396-2.185-1.322-4.142-2.528-5.965-.865.21-1.674.184-2.131 1.057zm24.576-66.124c.001 1.525.699 2.429 1.242 3.38.548.956 1.409 1.197 2.39.722.454-.22.856-.554 1.25-.871 1.301-1.037 1.963-2.509 2.739-4.006l-.849-1.173c-1.168.395-2.201.783-3.254 1.086-1.124.321-2.275.56-3.518.862zm9.953 59.791c1.104-.394 1.909-.664 2.7-.971.311-.12.611-.291.88-.49.458-.34.551-1.011.23-1.332-.37-.375-.751-.288-1.149-.051-.866.518-1.737 1.029-2.661 1.573v1.271zm-51.233-21.375c-.506 2.961-1.91 5.517-2.497 8.347.839.127 1.003-.481 1.339-.807 1.355-1.317 2.831-2.46 4.58-3.186 2.075-.858 3.819-2.215 5.492-3.651.879-.755 2.044-1.223 2.65-2.429-.88-.773-1.88-1.137-3.06-1.386-2.361 2.212-5.416 2.656-8.504 3.112zm-3.18.602c-.343 1.225-.61 2.47-.992 3.677-.841 2.67-1.702 5.334-2.982 7.841-.196.387-.571.888.038 1.305 2.677-2.544 5.385-9.194 5.334-13.077-1.02-.377-1.23-.34-1.398.254zm39.384-.109c-1.309-1.732-2.857-2.739-5.087-2.518l.099 1.482c.933.205 1.747.392 2.561.562.809.17 1.618.319 2.427.474zm-31.604-2.483c3.775-1.302 6.78-5.66 5.763-9.611-.291.815-.479 1.442-.735 2.044-.668 1.577-1.446 3.098-2.857 4.146-1.945 1.447-4.072 2.471-6.567 2.412-1.526-.039-3.053-.19-4.581-.265-.977-.047-1.96-.24-2.994-.01.15.249.2.43.322.518.275.191.564.392.876.497 3.561 1.211 7.201 1.499 10.773.269zm12.289-30.55c-.904 1.076-1.355 2.367-1.648 3.702-.101.458-.03 1.063.2 1.465.854 1.485 2.098 2.382 3.862 2.337.888-1.62 1.389-3.255 2.521-4.599 1.077-1.276 2.564-2.236 3.253-3.894-.783-1.267-1.528-2.481-2.271-3.688-1.443.816-5.189 3.812-5.917 4.677zm22.482 28.878c-1.89-1.372-3.961-2.297-6.096-3.085-1.147-.426-2.389-.905-3.677-.649-.473 1.479-.486 1.483.34 3.042 2.039.086 4.116.373 5.915 1.716 1.75 1.308 3.632 2.445 4.375 4.709.671-.227 1.322-.433 1.961-.672.143-.058.246-.224.455-.419-.728-1.776-1.573-3.41-3.273-4.642zm-1.749-36.172c2.999.809 5.897.042 8.666-1.202.21-.092.339-.358.488-.523-.111-.535-.385-.793-.903-.643-1.141.331-2.272.693-3.415 1.016-1.343.378-2.668.431-3.985-.175-2.133-.979-4.354-1.282-6.716-1.116-1.973.14-3.554.986-5.072 2.087-.121.087-.073.419-.12.746.339-.022.587.013.798-.056 3.408-1.109 6.793-1.072 10.259-.134zm-11.599 21.33c-.836-.126-.983-.774-1.376-1.277-.64-.801-1.374-1.498-2.713-1.44.055.475-.043 1.183.195 1.322.783.464 1.174 1.098 1.53 1.903.368.837 1.319 1.036 2.182.686.484-.194.625-1.127.182-1.194zm6.817 20.02l.84 2.318c2.36-.423 2.36-.423 3.601-1.361-1.333-.872-2.677-1.381-4.441-.957zm-10.542-24.343c1.443.855 2.72 1.612 4.037 2.387.905-1.635.272-3.3.573-4.865.184-.939-.243-1.96-.704-3.202-1.872 1.582-2.968 3.394-3.906 5.68zm-9.791 11.456c-.061-.05-.158-.056-.479-.161-.475 1.694-.432 3.462-.926 5.074 1.396.869 1.396.866 2.644.819 1.349-3.373 1.665-3.339-1.239-5.732zm-.532 66.916c1.51-1.813 1.471-2.733-.378-5.833-.401.542-.751.828-.84 1.179-.141.558-.274 1.208-.124 1.733.291 1.013.477 2.124 1.342 2.921zm32.809-85.335c.438 1.384.792 2.698 1.272 3.962 1.642 4.328 2.688 8.815 3.453 13.357.376 2.237.959 4.131 3.262 5.019 2.381 2.087 4.153 3.189 5.007 6.073.52-.239 1.023-.467 1.698-.771-.752-1.762-1.342-3.442-2.162-5-1.23-2.332-2.607-4.585-3.951-6.855-1.266-2.136-1.875-4.473-1.394-6.873.488-2.412 1.278-4.781 2.156-7.086.464-1.215.751-2.416.935-3.725-.575-.652-1.109-1.316-1.712-1.914-.576-.574-.856-1.476-1.848-1.774-1.711 2.454-4.113 4.052-6.716 5.587zm-32.293 25.504c-.675-.264-1.441-.298-2.167-.434l-.37.496c.7.688 1.648.942 2.51 1.21.734-.554.53-1.073.027-1.272zm-10.945-.121c.724-.206 1.33-.374 2.382-.667-1.888-.814-1.888-.814-2.382.667zm4.611-2.654c-.947-.42-1.913-.909-2.926-1.254-.256-.087-.668.284-1.353.602 1.332.586 2.305 1.066 3.319 1.426.382.133.828-.072.96-.774zm-5.033-12.527c-.888-.29-1.23.053-1.417.58-.628 1.753-1.239 3.514-1.839 5.276-.049.142.017.32.042.604l1.747.952c1.256-2.399 2.272-4.694 1.467-7.412zm35.167-5.346c.083 1.007.248 2.053.611 2.993.859 2.225 1.891 4.386 2.786 6.597.405 1 1.133 1.381 2.083 1.573.43-.944.162-1.786-.129-2.573-.675-1.839-1.419-3.654-2.152-5.472-.413-1.027-.924-2.016-1.266-3.065-.47-1.433-.179-2.679 1.225-3.504.129-.075.194-.262.337-.463l-.623-.87c-1.878 1.136-3.049 2.575-2.872 4.784zm-29.127 16.405c.826-.44 1.239-1.162 1.356-2.056.183-1.349.338-2.704.514-4.102-1.185-1.203-2.48-2.206-4.143-2.91-.355 1.676-.732 3.155-.973 4.658-.461 2.897-1.213 3.697 3.246 4.41zm20.419-29.216c-.022.125.098.274.156.413.17-.133.372-.25.498-.417.043-.051-.104-.251-.338-.76-.152.348-.279.548-.316.764zm-24.894 25.894c.327-1.667.614-3.342.861-5.022.057-.395-.092-.824-.144-1.241-1.011 2.229-1.927 4.446-2.627 6.875l1.293.324c.251-.369.555-.628.617-.936zm31.72 4.162c1.596.51 2.87 1.766 4.704 2.222.112-1.317-.141-2.515.495-3.61.326-.56-.154-1.41-.827-1.639-.633-.216-1.328-.408-1.985-.379-1.777.085-3.364-.401-4.881-1.279-.477-.274-1.035-.401-1.742-.663.005 1.369-.899 2.416-.36 3.595 1.456.973 3.062 1.264 4.596 1.753zm-35.179 3.184c.096-.186.219-.384.225-.583.001-.117-.132-.237-.229-.358-.129.083-.331.162-.342.261-.027.214.052.444.113.664.006.027.218.045.233.016zm-4.108-5.479c-.241.032-.491-.002-.545.085-.574.9-.829 2.365-.692 4.479.502-1.84 1.656-2.949 1.237-4.564zm1.878 5.492c.397-.939.728-1.709 1.048-2.484.095-.233.178-.476.23-.721.147-.677-.133-1.17-.761-1.386-.645-.222-1.142-.005-1.343.726-.27.973-.471 1.969-.623 2.968-.041.276.12.72.335.861.232.153.636.036 1.114.036zm34.391-10.489c-.142-.06-.279-.137-.425-.176l-.145.179c.137.056.271.133.413.164.039.01.104-.108.157-.167zm-31.12 8.093c-.007-.131-.163-.317-.291-.361-.122-.041-.409.04-.428.117-.125.53-.204 1.07-.296 1.61.692-.179 1.058-.629 1.015-1.366zm61.087-35.235c2.316.616 4.763.768 6.723-1.249v-1.19c-2.634.134-5.167.274-7.7.381-.576.021-1.17-.027-1.736-.136-1.924-.372-3.833-.802-5.81-.771-1.079.014-1.973.377-2.734 1.243l.799 1.385c3.581-.794 7-.578 10.458.337zm5.79 17.599c-2.728-1.543-5.136-3.492-8.354-4.667-1.043 2.32-2.037 4.479-2.98 6.659-.162.374-.231.845-.177 1.25.229 1.69.492 3.377.815 5.051.073.377.438.696.676 1.039 2.327 3.369 4.929 6.571 6.22 10.554.089.27.361.479.639.841.617-.718 1.249-1.218 1.566-1.87 1.694-3.478 3.033-7.047 2.547-11.042-.235-1.944-.37-3.9-.581-5.849-.075-.669-.247-1.332-.371-1.966zm-22.968-7.908c-.062.033-.118.133-.125.209-.018.16-.057.35.009.478.065.126.245.251.382.263.247.017.52-.003.744-.096 1.93-.79 3.461-2.106 4.71-3.74.518-.683.77-1.494.069-2.593-.399.361-.691.554-.889.812-1.372 1.834-2.784 3.616-4.9 4.667zm12.378-9.026c.207.794.517 1.574.583 2.373.075.898-.068 1.815-.114 2.704.663.597 1.125 1.306 2.07 1.495.771-2.275-.487-4.259-.288-6.261-.754-.469-1.39-.889-2.251-.311zm-30.556 42.205c-.443.161-.932.309-1.397.507-1.303.557-2.684.631-4.038.467-1.85-.229-3.674-.641-5.786-1.022-.385.506-.738.983-1.109 1.444-1.899 2.37-4.15 4.286-7.004 5.415-.714.282-1.446.519-2.176.754-2.16.697-3.694 2.164-4.651 4.14-.773 1.592-1.276 3.32-1.913 5.034 1.219 1.137 2.528 2.131 3.547 3.366 1.012 1.227 1.734 2.694 2.537 3.979.857.191 1.694.061 2.009-.485.802-1.396 2.721-1.83 3.121-3.618-.486-.553-1.024-1.002-1.355-1.575-.379-.657-.581-1.419-.85-2.138-1.466-3.925.326-6.918 3.336-8.953.813-.552 1.904-.792 2.902-.956 2.295-.377 4.581-.494 6.693.862.63.403 1.41.581 2.126.849.961.358 1.803.136 2.659-.415 1.215-.778 2.511-1.435 3.76-2.164.289-.167.531-.413.776-.605-.707-2.138-1.722-3.698-3.187-4.886zm28.98-39.105c1.174-.764.484-1.573.048-2.359-.14-.247-.334-.461-.579-.79l-1.277 1.634c.497.832.934 1.433 1.808 1.515zm-43.405 50.366c-.877 1.054-.85 2.196-.278 3.333.331.658.828 1.234 1.329 1.956 2.484-1.333 4.07-3.428 6.316-5.533-1.596-.486-2.782-.97-4.01-1.188-1.357-.244-2.476.371-3.357 1.432zm-.787-2.999c-.449.19-.851.572-1.181.948-.506.577-.918 1.229-1.383 1.843-.539.71-.726 1.499-.712 2.396.021 1.413.506 2.667 1.168 3.866.381.692.951 1.188 2.22 1.311.033-.064.2-.373.337-.69.064-.147.076-.317.046-.184-.577-1.495-1.114-2.734-1.537-4.014-.375-1.133-.218-2.198.763-3.03.26-.221.525-.451.722-.725.73-1.014 1.76-1.253 2.926-1.259 2.092-.01 3.974.679 5.896 1.692l1.1-1.167c-3.447-2.748-6.872-2.445-10.365-.987zm56.661-50.249c-2.458 1.137-4.918.114-7.501.178-.147 1.238-.176 2.35.384 3.332.472.817.369 1.643.355 2.481-.011.583-.108 1.166-.179 1.868 2.026.757 3.994 1.489 6.341 2.362-.314-2.6.157-4.762.592-6.926.21-1.05.565-2.102.008-3.295zm-16.437 36.778c.107.836.204 1.292.214 1.752.01.572-.049 1.145-.088 1.911l2.356-.157c-.636-1.372-1.224-2.406-2.482-3.506zm-.455-2.842c.256.703.271 1.041.43 1.137 1.229.735 1.991 1.817 2.576 3.1.275.6.783 1.108 1.243 1.604.132.145.583.221.68.122.204-.201.394-.561.362-.826-.048-.407-.202-.858-.458-1.174-1.217-1.524-2.525-2.966-4.833-3.963zm-8.182 4.098c.139-1.052.29-2.019.02-3.038-.539-.301-1.05-.586-1.771-.994-.332 3.048-.332 3.048 1.751 4.032zm2.475-2.095c-.716-.115-1.237.177-1.272.86-.089 1.749-.244 3.52.594 5.128 1.016.276 1.676-.308 2.583-.772-.147-1.245-.314-2.323-.387-3.405-.1-1.406-.229-1.602-1.518-1.811zm-29.937-27.632l-.146 1.22c.649-.342.419-.779.146-1.22zm37.774-3.541c1.647 2.304 3.491 4.416 6.06 5.763 2.108 1.105 4.238 2.174 6.184 3.576.39.28.883.895 1.672.364.059-.768.122-1.602.195-2.503-2.111-.835-4.285-1.417-6.157-2.51-1.891-1.104-3.479-2.721-5.205-4.106-.598-.479-1.207-.951-1.821-1.41-.359-.266-.738-.505-1.493-1.016.272.928.298 1.471.565 1.842zm6.089 25.519c-.83-1.29-2.022-2.402-2.599-3.785-1.228-2.944-2.677-5.955-.851-9.239.578-1.042 1.01-2.165 1.494-3.257.342-.769.656-1.545 1.029-2.425l-1.713-1.155c-.296 1.065-.488 1.806-.712 2.536-.604 1.953-1.25 3.89-1.828 5.848-.952 3.228-.541 6.213 1.531 8.961.916 1.216 1.707 2.546 2.411 3.898 1.18 2.264 2.233 4.59 3.366 6.879.091.175.479.392.584.333.247-.142.606-.467.572-.664-.224-1.421-.384-2.875-1.107-4.164-.709-1.266-1.393-2.548-2.177-3.766zm-20.552-2.877c-1.863-.14-3.729-.259-5.595-.386l-.111.547c1.341.766 2.592 1.621 4.379 1.321 1.926-.325 2.769.238 3.69 1.977.281.528.543 1.066.844 1.583.068.111.271.146.704.364l1.164-1.226c-.527-.739-.912-1.287-1.307-1.828-.944-1.284-2.104-2.23-3.768-2.352zm-29.988-14.208l-1.283 5.424c.803.609 1.368 1.309 2.439 1.157l1.301-5.4c-.697-.518-1.131-1.372-2.457-1.181zm6.451-3.533c-.121.082-.251.156-.326.268-2.009 3.066-2.975 6.503-3.52 10.08-.048.323.009.687.114.999.209.615.553 1.071 1.305.732.329-1.251.81-2.459.935-3.699.229-2.283.56-4.526 1.278-6.714.172-.522.158-1.104.214-1.666zm-.289 9.119c-.181 1.184-.372 2.012-.414 2.854-.038.744-.16 1.665.201 2.212.618.938 1.405 1.881 2.807 2.27.824-2.053.845-4.047.805-6.168l-3.399-1.168zm1.593-10.587c.903-1.278 2.247-2.034 3.379-3.041.629-.562 1.206-1.188 1.766-1.823.134-.152.101-.448.179-.858-.418.038-.8-.036-1.027.115-1.622 1.091-3.193 2.247-4.214 3.989-.333.567-.77 1.082-1.137 1.638.364.149.778.373 1.054-.02zm-4.605 4.267c-.121-.639-.501-1.078-1.1-1.413-.599-.333-1.18-.629-2.208-.06 1.167.651 2.075 1.161 2.99 1.66.036.018.132-.072.318-.187zm4.061 5.046c.78.731 1.547 1.25 2.876.606-1.299-1.01-2.332-1.815-3.408-2.654-.206 1.413-.178 1.38.532 2.048zm8.657-4.224c.765-.786 1.417-1.66 1.915-2.691l-.732-.823c-1.25.763-2.144 1.824-2.862 2.948-1.885 2.956-3.289 6.17-3.437 9.695-.077 1.791-.305 3.463-1.034 5.049.487.708 1.084.782 1.579.35.572-.496 1.029-1.147 1.006-1.986-.021-.764-.083-1.529-.086-2.292-.01-1.614-.142-3.253.43-4.804.74-2.005 1.704-3.889 3.221-5.446zm-4.291 28.304c1.646.584 3.186.028 4.743-.322.383-.087.744-.403 1.044-.688.143-.136.23-.526.136-.665-.17-.244-.469-.459-.756-.539-.205-.057-.471.151-.719.194-2.094.37-4.178.641-6.237-.213-.647-.269-1.331-.284-2.156.541.487.405.812.842 1.239.992.874.309 1.83.386 2.706.7zm24.512-8.878c-.182.063-.367.321-.41.519-.145.647.112 1.142.729 1.404.219.091.499.187.703.124.261-.079.473-.316.683-.466-.138-.399-.193-.646-.305-.861-.301-.588-.868-.899-1.4-.72zm-18.418-7.058c-.805-.29-1.561-.469-2.217-.824-.632-.348-1.164-.879-2.108-1.617.361 2.468.05 4.441-.669 6.344 1.222 1.018 2.417 1.447 3.944.894.347-1.59.686-3.14 1.05-4.797zm-27.196 45.047c-.104.098-.18.311-.15.445.023.12.215.308.317.301.827-.063 1.605-.244 2.063-1.314-.914-.062-1.625.021-2.23.568zm-.968-5.512c-.002 1.604-.176 2.771.732 3.817l1.757-.625c-.469-1.234-1.091-2.161-2.489-3.192zm25.683-27.444c-1.562-1.223-3.329-1.802-5.173-2.965l-1.36 2.726 3.795 1.363c.733-.522 1.907-.177 2.738-1.124zm-25.845 22.824c-.019.625-.003 1.19-.066 1.751-.078.662.175 1.157.641 1.574 1.907 1.712 3.444 3.719 4.76 5.904.164.268.447.46.765.776-.361-4.702-2.686-8.536-6.1-10.005zm43.705-44.632c-.069-.231-.234-.498-.432-.61-.264-.151-.617-.25-.91-.208-.169.021-.394.349-.421.561-.048.413-.057.868.074 1.252.247.721.587 1.415.923 2.102 1.387 2.849 2.628 5.744 2.736 8.973.041 1.23.605 2.06 2.041 2.841 0-.76.073-1.258-.011-1.729-.818-4.548-2.659-8.79-4-13.182zm5.399 38.126c.003.135.047.266.079.399l.27-.171-.182-.368c-.059.045-.17.094-.167.14zm-4.208 40.766c-.247-2.766-1.523-4.286-3.916-4.965-1.25 1.226-.385 2.581-.592 3.781 1.389.779 2.77 1.032 4.508 1.184zm4.111-43.161c-.183.046-.32.283-.474.435.185.088.382.272.553.25.194-.026.362-.236.676-.469-.361-.114-.586-.266-.755-.216zm.169-1.464c.225-.034.428-.185 1.13-.514-.991-.581-1.503-1.165-2.523-1.299l.265 1.824c.482.001.811.038 1.128-.011zm3.414 9.452c.129-.406.276-.82.313-1.239.396-4.363-.123-8.687-.595-13.012-.029-.267-.237-.656-.74-.515-.09.096-.277.202-.296.334-.26 1.603-.474 3.217-.046 4.813.139.516.043.965.009 1.467-.108 1.586-.349 3.143-.581 4.711-.224 1.521.445 2.779 1.531 3.91.215-.239.364-.337.405-.469zm7.428-12.133c-.209-1.195-.029-2.45-1.167-3.451-.185.294-.37.469-.335.56.287.781.591 1.561.94 2.314.105.233.369.386.562.577zm-4.9 2.782c1.516-.07 3.116.211 4.621-1.042-1.734-1.244-1.869-3.264-2.88-4.908h-3.135c-.045 2.126-.615 4.275 1.394 5.95zm-16.867.983c.228.123.456.359.658.336 1.402-.143 2.797-.339 4.214-.521-.419-1.136-1.459-1.009-2.315-1.087-.93-.083-1.816.174-2.557 1.272zm.907-2.213l.176-.162c-.14-.057-.309-.196-.414-.161-.279.104-.533.283-.795.429l.193.314c.282-.138.563-.273.84-.42zm23.465-.97c.761.115 1.352.179 1.685-.594l-1.097-4.116c-.536.051-.965.03-1.356.139-1.073.299-1.431.973-.93 1.897.519.957 1.165 1.844 1.698 2.674zm-13.256 47.238h1.75c-.326-.853-.527-1.575-.865-2.227-1.619-3.118-4.096-5.636-5.991-8.564-.264-.406-.708-.698-1.091-1.062-.699.722-.994 1.479-.983 2.331.93.467 2.019.729 2.691 1.402 2.244 2.256 4.745 4.428 4.489 8.12zm-6.121-48.26c-1.033.413-1.929.626-2.754 1.435l2.872.209-.118-1.644zm2.799 10.028c.028.495.273.986.471 1.453.166.392.423.742.613 1.122.495.984.957 1.986 1.47 2.96.274.514.624.987.96 1.51.401-.019.75.018 1.064-.063.482-.123.945-.325 1.648-.58-.748-1.438-1.33-2.659-2-3.826-1.74-3.043-3.068-6.234-3.572-9.726-.123-.842-.163-1.702-.35-2.526-.101-.454-.429-.858-.718-1.399l-1.408.697c.162 1.289.458 2.381.402 3.453-.124 2.447 1.288 4.546 1.42 6.925zm56.641 1.952c.193-1.573.67-3.158.071-4.678-1.008-.353-1.798-.03-2.596.304-2.377.999-4.333 2.634-6.551 4.135.992 1.787 2.748 2.675 4.016 4.366 1.643-1.186 3.104-2.217 4.536-3.291.249-.187.489-.537.524-.836zm-60.311-.768c-.021-1.364-.011-2.729-.047-4.093-.016-.616-.178-1.199-.825-1.469-.735-.303-1.468-.478-2.154.362.258 1.137.599 2.12.673 3.122.07.979-.134 1.978-.226 3.033 1.683.247 2.908 1.714 4.819 1.105.03-.665.096-1.332.079-1.992-.017-.592-.145-1.179-.188-1.77-.057-.777-.048-.777-.777-1.831l-.508 4.953c-.823-.826-.837-.826-.846-1.42zm7.182-10.996c-.275-.183-.526-.354-.788-.51l-.17.177c.231.202.456.403.694.594l.264-.261zm15.787-.67c1.635 4.648 3.67 9.171 4.376 14.112.04.299.305.566.69 1.237.782-2.286.877-4.072.316-5.942-.663-2.203-1.006-4.51-1.797-6.662-.642-1.747-1.282-3.497-1.916-5.247-.116-.323-.196-.657-.33-.969-.262-.62-.801-.848-1.461-.64-.574.18-.87.625-.746 1.17.226.995.529 1.975.868 2.941zm37.48 17.082c-1.882.224-2 2.341-3.598 2.843.494 2.727-.129 5.374.365 8.038 1.762.391 3.265.228 4.545-1.076-.294-3.009-.571-5.971-.884-8.931-.034-.301-.279-.579-.428-.874zm-8.584-15.064c-.364 1.123-.572 2.048-.969 2.892-.426.91-1.079 1.715-1.522 2.619-.143.299.053.767.109 1.332.625-.243 1.156-.326 1.522-.617 1.406-1.103 2.837-2.193 4.107-3.446.938-.924 1.934-1.664 3.178-2.013.795-.22 1.635-.28 2.5-.417.661-1.047.716-2.24.848-3.423.125-1.186.336-2.362.442-3.552.095-1.11.554-2.211.239-3.582-.455.423-.793.672-1.044.99-.902 1.127-1.689 2.353-2.669 3.401-2.086 2.227-4.018 4.649-6.741 5.816zm8.013 12.523c-.666.538-1.386 1.098-2.08 1.686-.277.239-.268.539-.081.816.786-.466 1.605-.888 2.341-1.422.306-.22.493-.695-.18-1.08zm-3.329 4.132l1.091-1.537c-.985.297-.999.345-1.091 1.537zm-26.271-4.093c.1.285.684.465.854.241.304-.408.562-.845.855-1.26.558-.795.552-1.578-.023-2.359-.202-.275-.373-.574-.591-.833-1.619-1.903-1.517-4.034-.833-6.238.145-.465.347-.912.552-1.443-1.106-.432-1.908.132-3.008.504.906 3.81 1.742 7.437 2.102 11.151l.092.237zm17.255-14.141c-.327.059-.675.151-.947.329-.163.105-.296.435-.253.622.043.194.285.434.485.487.318.084.696.107 1.003.013 1.47-.443 2.925-.925 4.382-1.411.32-.109.672-.228.91-.45 1.124-1.039 2.315-2.03 3.289-3.202 1.472-1.763 2.787-3.661 4.153-5.51.078-.106.027-.31.039-.507l-.814-.734c-2.336 1.249-3.256 3.485-4.619 5.273-2.012 2.628-4.338 4.505-7.628 5.09zm10.015 29.08c-.143-.025-.445.282-.483.475-.029.128.266.464.425.475.824.039 1.617-.211 2.472.209.612.3 1.331-.122 1.811-.63.179-.203.184-.576.356-1.146-1.802.128-3.121.867-4.581.617zm-11.557-52.249c-1.521 4.609-1.67 9.229.149 13.765 1.016 2.535 2.185 4.994 2.279 7.776 1.012.094 1.623-.212 1.811-1.145.202-1.02.267-2.008-.233-2.999-.805-1.598-1.561-3.223-2.275-4.865-1.276-2.945-1.952-5.98-1.468-9.233.193-1.307.803-2.423 1.21-3.626.147-.448.208-.922.361-1.634-1.105.488-1.557 1.131-1.834 1.961zm-6.605-4.114c1.423 1.862 2.416 3.895 2.69 6.266.291 2.535.676 5.059 1.038 7.585.033.237.182.455.276.685l.551-.244c-.464-2.474-.056-4.892.207-7.315.289-2.628 1.784-4.731 2.936-6.744-.631-2.441-1.291-4.645-1.754-6.89-.486-2.365-1.64-4.484-2.247-6.786-.725-2.758-2.2-4.935-4.431-6.692-1.168-.921-2.237-1.482-3.667-.557-.395.262-.957.252-1.598.402-.376 1.763-.975 3.49-1.062 5.243-.109 2.201.217 4.425.324 6.637.058 1.185.572 2.082 1.44 2.873 1.893 1.72 3.739 3.493 5.297 5.537zm-8.003 25.16c.492-1.184.988-2.167 1.315-3.202.81-2.547 2.266-4.536 4.657-5.808.296-.157.583-.358.833-.585.536-.482.763-1.065.697-1.827-.288-3.336-1.179-6.527-2.185-9.704-.531-1.678-1.522-3.042-2.57-4.392-.119-.149-.442-.142-.765-.235-.222 1.188.14 2.258.221 3.346.115 1.529.336 3.087.165 4.592-.221 1.94-.633 3.891-1.235 5.751-1.184 3.677-3.206 6.779-6.77 8.636-.137.072-.211.26-.441.56.382 1.238.799 2.59 1.237 4.002 1.842-.04 3.42-.62 4.841-1.134zm17.948-8.005c.892 2.181 1.744 4.269 2.65 6.488.404-.192.883-.269 1.108-.55 1.848-2.314 3.46-4.795 5.175-7.43-.624-.441-1.136-.863-1.704-1.191-.643-.372-1.331-.659-2.115-1.044-.725.798-1.47 1.497-2.066 2.303-.739.997-1.96.907-3.048 1.424zm-.635-1.52c.477-.127.936-.304 1.412-.365 1.405-.183 2.278-1.092 3.018-2.167.395-.572.099-.947-.489-1.15-1.353 1.038-2.703 2.066-4.041 3.115-.05.044.048.28.1.567zm-.681-2.209c1.6-.293 2.832-1.038 3.647-2.598-1.084-2-1.714-4.218-3.023-6.166-.938 1.056-1.25 1.617-1.393 2.967-.206 1.955-.354 3.921.769 5.797zm-20.53 14.561c-.082.099-.074.336-.014.472.059.13.249.314.358.298.49-.076.988-.176 1.459-.336 1.934-.661 3.864-1.193 5.958-1.108 1.19.047 2.364-.056 3.499.45.27.122.646.016 1.312.016-.996-.89-1.972-1.244-2.889-1.441-3.068-.654-6.05-.072-8.95.987-.288.105-.523.408-.733.662zm5.853 1.123l-.247-.374c-.091.126-.247.249-.252.375-.005.122.148.247.232.37l.267-.371zm-49.744 29.392c1.608-.035 3.213-.386 4.816-.629 1.379-.207 2.615-.714 3.632-1.727.254-.25.697-.311 1.063-.447.232-.742-.247-1.192-.81-1.738-.55.289-1.093.688-1.697.858-.645.178-1.354.1-2.027.199-1.01.147-2.011.361-3.02.536-1.089.186-2.208.252-3.043 1.145-.146.157-.463.15-.698.234-3.376 1.247-5.89 3.619-8.18 6.28-.164.191-.302.43-.366.668-.075.292-.057.605-.085.968 1.127-.31 1.625-1.058 2.215-1.783 2.118-2.59 4.626-4.481 8.2-4.564zm50.114-17.249c.254-.215.563-.374.713-.625.716-1.183.346-2.308-.294-3.381-.901-1.51-1.315-3.126-1.217-4.887.033-.56-.069-1.125-.111-1.725-.287.1-.511.105-.587.215-1.299 1.789-1.404 3.799-.109 5.412 1.091 1.358 1.644 2.772 1.255 4.507-.02.095.163.235.35.484zm-52.388 4.31l.207-.151c1.326-1.068 2.852-1.969 3.928-3.247 1.542-1.829 3.47-3.22 5.063-4.958.888-.968 1.514-2.172 2.854-2.836l-.955-1.212c-.321.11-.529.12-.626.227-1.321 1.428-2.627 2.868-3.939 4.308-.971 1.064-1.903 2.17-2.927 3.181-1.146 1.135-2.366 2.195-3.581 3.256-.378.331-.833.583-1.273.834-.811.466-1.631.926-2.465 1.351-1.45.736-2.958 1.3-4.579 1.557-.998.157-1.973.426-3.52.774.655.441.849.685 1.011.666 3.863-.485 7.293-2.231 10.802-3.75zm-2.718 11.622c.369-3.143-1.622-5.281-3.084-7.747-1.924.388-3.585.785-5.271 1.044-1.026.157-1.515.713-1.66 1.649-.074.494-.167 1.046-.032 1.504.815 2.782 1.327 5.676 2.917 8.18.215.341.323.824 1.081.667 1.457-2.222 3.967-3.485 6.049-5.297zm3.022 16.216c2.015-.316 3.985-.947 6.061-.796 1.617.117 3.229.233 4.843.347l1.765.128c.544-1.037.446-2.026.388-3.132-.667-.081-1.248-.138-1.824-.22-2.182-.314-4.424-.234-6.5-1.219-2.501-1.189-4.861-2.466-6.012-5.218-.274-.661-.824-1.204-1.266-1.83-1.83 1.237-3.185 2.719-4.104 4.62-.371.763-.415 1.459-.058 2.199.811 1.688 1.634 3.375 2.542 5.252.63.093 1.14.254 1.636.224.848-.053 1.688-.223 2.529-.355zm54.877-33.322c.04.21.27.386.406.573.89-.489 1.661-1.255 2.313-2.83.989-2.389 2.645-4.594 2.389-7.28-1.343-1.356-3.059-1.437-4.538-2.041-1.325-.541-2.133-.133-2.619 1.205-.823 2.262-.849 4.516.422 6.654.698 1.177 1.381 2.345 1.627 3.719zm-51.896 35.821c2.51-.703 4.97-.875 7.536-.024 4.138 1.372 8.37 2.356 12.794 1.991.254-.018.572-.136.756-.027.981.576 1.667-.146 2.546-.468-.753-.149-1.403-.402-2.049-.397-3.465.03-6.643-1.324-9.936-2.08-4.46-1.029-8.88-1.488-13.389-.557-1.405.292-2.835.551-4.12 1.608.536 1.285.65 1.399 1.428 1.196 1.485-.388 2.957-.825 4.434-1.242zm60.725-56.521c-.093-.217-.557-.456-.771-.395-.229.061-.55.501-.507.713.381 1.903.809 3.793 1.274 5.675.124.486.429.931 1.06.923.452-.007.647-.482.574-1.408l-.102-.484c.411-1.778-.808-3.333-1.528-5.024zm-2.675 17.246c.645-1.033.564-1.903-.576-3.024-.89 2.231-2.003 4.087-2.601 6.481l1.6-.465c.547-1.054.999-2.063 1.577-2.992zm-48.913-30.412c.752.118 1.531.075 2.299.056.727-.016 1.454-.09 2.392-.153l-.561-1.355c-.722-1.819-1.486-3.622-2.156-5.464-.937-2.575-.597-5.018.975-7.272.58-.83 1.189-1.639 1.854-2.557-.521-2.032-1.533-3.75-1.76-5.738-.116-1.009-1.963-1.904-2.835-1.453-.334.174-.606.586-.769.952-.99 2.241-1.938 4.495-2.889 6.719.287.93.578 1.821.839 2.723.236.819.436 1.647.651 2.47.795 3.056.66 6.069-.507 8.917.477 1.263 1.287 1.973 2.467 2.155zm48.628 10.4c-.556-3.446-1.225-6.883-1.626-10.345-.217-1.87-.82-3.541-1.917-4.955-1.355-1.75-2.958-3.312-4.475-4.932-.191-.205-.523-.287-.946-.503-.106.862.185 1.277.658 1.717 1.456 1.351 2.594 2.932 3.239 4.837 1.428 4.234 2.283 8.582 2.747 13.02.259 2.462.581 4.919.965 7.362.344 2.194.731 4.39 1.256 6.546.526 2.149 1.131 4.301 2.454 6.145.658.916 1.377 1.732 2.99 1.546-.12-.823-.126-1.423-.304-1.97-.437-1.38-.912-2.756-1.449-4.103-1.618-4.065-2.874-8.221-3.348-12.588-.065-.592-.147-1.186-.244-1.777zm6.271 16.514c1.126-.769 1.259-2.005 1.662-3.08.06-.157-.156-.421-.25-.647l-3.064.843c.683.958.566 2.14 1.652 2.884zm-4.839 4.164c-.28.273-.411.691-.602 1.048.607.554 1.108.264 1.477-.204.133-.168.08-.658-.078-.828-.134-.143-.657-.155-.797-.016zm-.172-20.437c.043.188.272.331.418.496.113-.193.31-.384.314-.576.001-.214-.176-.43-.524-1.188-.14.793-.256 1.048-.208 1.268zm-9.981 7.811c.99-.76.938-1.999 1.497-2.902.536-.863 1.201-1.65 1.735-2.515.547-.887 1.866-1.127 2.173-2.64-3.669 1.348-5.96 5.011-5.405 8.057zm-48.692 19.401c-1.474 1.269-3.087 2.373-4.71 3.601l2.672 7.14c3.097-.569 6.167-.738 8.69-2.554 0-1.423-.027-2.514.007-3.606.039-1.193.035-2.404.238-3.575.182-1.034.62-2.023.946-3.03-1.38-.667-2.595-1.257-3.865-1.873-1.324 1.309-2.572 2.689-3.978 3.897zm4.728 22.042c-.983-.261-1.975-.492-2.955-.767-1.088-.304-2.06-.805-2.684-1.803-.665-1.063-1.315-2.138-2.033-3.305l-1.394.069c.408.93.792 1.524.924 2.171.381 1.849 1.673 2.909 3.132 3.839 2.044 1.303 4.311 1.992 6.714 2.171 1.093.083 2.205.078 3.291-.041.679-.072.655-.641.378-1.17-.813-.121-1.635-.195-2.433-.373-.989-.218-1.957-.531-2.94-.791zm.776-83.493c-.285 1.357-1.264 2.334-1.853 3.555l.789 1.429c1.705-1.324 2.2-3.166 2.725-4.99-1.047-.588-1.529-.608-1.661.006zm16.002 17.522c-1.083-3.512-2.294-6.964-3.694-10.368-.947-2.296-2.021-4.491-3.373-6.58l-1.532-.001c.534 3.272 1.841 5.972 2.997 8.72.19.455.789.805.842 1.247.319 2.658 1.522 5.035 2.325 7.532 1.204 3.754 2.356 7.499 2.667 11.456.047.592.146 1.209.382 1.748.352.812.455 1.617.383 2.495-.054.675.003 1.375.112 2.048.165 1.003.443 1.98 1.358 2.564.833-.41.824-1.103.833-1.8.027-2.029-.353-4.033-.605-6.019-.555-4.405-1.38-8.778-2.695-13.042zm-1.163 74.969c.168-3.148-2.104-6.112-4.541-7.396-.854-.454-1.433-.158-2.224 1.071 3.449.943 5.034 3.489 5.676 6.705.549.166 1.06.164 1.089-.38zm-9.302-1.998c.7-2.436 1.236-4.817 2.385-7.026.467-.894.707-1.913.978-2.895.097-.359-.02-.774-.039-1.221-.285.132-.515.159-.572.276-1.556 3.123-2.828 6.334-2.874 9.895-.004.322.078.647.122.971zm-3.112-16.031c-1.227 1.355-2.862 1.785-4.575 2.045-1.58.24-3.159.47-4.857.722.405 1.888 1.126 3.426 2.854 4.095 3.179 1.232 6.457 1.989 9.924 1.354.522-1.262 1.029-2.433 1.488-3.619.235-.604.094-1.173-.354-1.656-1.273-1.367-2.542-2.74-3.826-4.097-.072-.081-.221-.1-.356-.131.203.488.048.902-.298 1.287zm-7.922-17.887c.353-.283.486-.835.708-1.244-2.401-1.84-3.452-1.932-5.597-.438-1.618 1.125-3.063 2.447-4.502 4.258.917 1.009 1.708 1.874 2.544 2.789 2.869-1.126 4.605-3.576 6.847-5.365zm6.216-.913c-.665.407-.7 1.333-.018 1.667.586.285 1.225.471 1.976.749l.709-2.065c-1.047-.705-1.833-.86-2.667-.351zm-14.777 7.118c-.383-.916-.951-1.685-1.771-2.472l-1.364 1.268c1.576 1.948 1.576 1.948 3.135 1.204zm59.24-20.643c1.385.886 3.167.221 4.913 1.392-.182-2.785-.688-4.963-1.251-7.172-2.237 1.084-3.089 2.44-3.662 5.78zm-62.539 21.655c.028-.123-.083-.394-.159-.404-.375-.054-.77-.109-1.131-.033-.154.035-.231.398-.365.65.248.101.468.259.687.262.382.003.851.06.968-.475zm17.659-13.956c.161-.25.338-.608-.262-.866l-2.985 1.688 2.051.806c.414-.556.839-1.07 1.196-1.628zm-4.498 4.164c.4.022.878-.043 1.199-.252.306-.205.453-.651.683-1.012-1.374-.944-2.631-1.423-3.918-.06.436.836 1.139 1.272 2.036 1.324z" fill="none"/><path fill="#444" d="M10.317 94.78c.62.897 1.265 1.773 1.931 2.633-.562-.952-1.195-1.838-1.931-2.633zm20.424 18.41c-.436-1.718-1.047-3.396-1.554-5.007 1.709-1.703 3.746-2.293 5.819-2.754 2.657-.596 5.259-.354 7.932.868.608 1.539.1 2.9-.718 3.947-1.657 2.13-2.542 4.437-2.57 7.039.506.179 1.016.351 1.527.517l-.014-.03c-.263-2.157-.111-4.226 1.374-5.988 1.123-1.334 1.698-2.9 1.726-4.545.646-.175.816.064.854.442.214 2.065-.566 3.893-1.684 5.486-.969 1.385-1.599 2.788-1.476 4.894.441.137.892.253 1.338.38-.426-1.366-.372-2.692.524-3.888 1.522-2.028 2.396-4.271 2.513-6.974.628-.02 1.191-.098 1.745-.054.926.07 1.857.181 2.773.334.584.098.91.902.603 1.418-.214.36-.438.759-.76 1.011-1.668 1.315-2.527 3.165-3.447 4.99-.379.754-.756 1.522-1.242 2.209-.58.824-.89.982-2.144 1.115.793.217 1.594.415 2.401.6.58-.452 1.064-1.054 1.418-1.851.549-1.243 1.181-2.467 1.905-3.617 1.848-2.925 4.482-4.84 7.833-5.733.395-.105.829-.101 1.245-.087.115.003.297.204.321.345.039.226.016.487-.064.701-.052.135-.249.234-.4.293-.316.124-.646.206-.971.311-3.794 1.232-6.419 3.733-8.033 7.349-.382.853-.792 1.691-1.199 2.531l-.107.177.938.167c.368-.8.782-1.582 1.142-2.384.423-.94.932-1.804 1.886-2.429.644 1.878 1.053 3.805 1.952 5.471l.012.022c.501.046 1.004.081 1.508.115-.632-.755-1.139-1.591-1.368-2.342-.445-1.467-.843-2.941-.57-4.495.07-.406.175-.877.435-1.162.316-.345.818-.523 1.264-.789.682.868.391 1.751.366 2.533-.069 2.358.452 4.481 1.757 6.352.726.026 1.45.055 2.182.055l.948-.024c.181-.89.288-1.795.346-2.708.225-3.515-.109-6.999-.66-10.472-.131-.819.101-1.722-.133-2.496-.232-.774-.931-1.395-1.265-2.153-.794-1.808-1.718-3.522-2.957-5.071-2.025-2.535-3.975-5.134-6.052-7.625-1.036-1.24-2.242-2.352-3.446-3.442-1.83-1.655-3.051-3.73-3.812-5.993-.887-2.638-.716-5.355.186-8.029.567-1.697 1.014-3.435 1.439-5.175.439-1.794.345-3.552-.587-5.22-.371-.669-.646-1.4-.909-2.12-.099-.275-.043-.606-.059-.971.316.101.552.101.618.207.976 1.514 1.793 3.108 2.228 4.858.161.651.221 1.377.111 2.031-.24 1.422-.553 2.844-.957 4.229-.778 2.674-.879 5.394-.537 8.112.262 2.083 1.38 3.844 2.74 5.407 1.401 1.611 2.903 3.133 4.336 4.718 1.145 1.265 2.252 2.565 3.378 3.847.507.577.938 1.254 1.542 1.697 1.582 1.167 2.532 2.774 3.311 4.493.809 1.789 1.53 3.618 2.238 5.449.806 2.083 1.123 4.287 1.441 6.482.48 3.329.315 6.605-.176 9.871l.975-.074c.079-.708.171-1.414.197-2.127.069-1.957.098-3.923.11-5.883.006-.838-.072-1.674-.11-2.462 1.892-.769 3.658-.068 5.435-.267.289.425.588.748.746 1.128.484 1.174.916 2.368 1.293 3.353-.261.974-.835 1.337-1.4 1.727-.768.547-1.571 1.076-2.208 1.755-.666.705-1.168 1.54-1.396 2.532.479-.055.956-.116 1.431-.182.342-.757.813-1.408 1.436-1.987.874-.805 1.833-1.516 3.406-1.857-.135.571-.114.867-.256 1.019-.474.491-.998.933-1.508 1.386-.398.357-.765.731-1.096 1.125.675-.118 1.351-.236 2.018-.375.475-.336 1.019-.646 1.651-.932l.192.506c.406-.099.812-.197 1.215-.304-1.271-2.921-2.732-5.761-3.834-8.771 1.453-.47 1.765-.413 2.191.44.269.537.494 1.096.697 1.657.744 2.074 1.619 4.09 2.593 6.063l.05.13 1-.3c-.064-.263-.129-.519-.218-.751 2.523-2.935 4.935-5.741 7.349-8.548.526.075.436.504.338.779-.564 1.595-1.008 3.266-1.815 4.744-.427.781-.924 1.524-1.444 2.256.512-.206 1.022-.413 1.527-.632l.502-.77c1.306-1.944 2.056-4.272 3.15-6.651.221.05.476.076.703.171.137.061.229.226.34.347-.008.163.05.413-.036.479-1.154.942-1.504 2.164-1.53 3.623-.009.479-.05.94-.116 1.387.372-.187.744-.375 1.111-.569.166-1.135.427-2.263.698-3.687.429.467.762.69.901 1.007.23.515.351 1.039.4 1.568l.893-.513c-.28-1.511-.906-2.955-1.685-4.399-1.074-1.998-2.55-3.624-4.02-5.284-.965-1.086-1.982-2.12-2.991-3.167-.355-.369-.71-.755-1.13-1.039-2.549-1.721-5.135-3.389-7.666-5.133-1.026-.706-2.328-1.104-2.862-2.429-.1-.25-.479-.436-.765-.544-.982-.38-1.717-.974-2.356-1.846-1.262-1.72-2.693-3.311-4.024-4.977-.53-.666-1.021-1.368-1.476-2.09-.904-1.43-1.767-2.888-2.639-4.319 1.589-1.194 1.781-1.188 2.76.08 1.252 1.623 2.583 3.197 3.728 4.895 2.455 3.635 5.848 6.186 9.462 8.516 1.503.97 3.154 1.689 4.516 2.908 1.902 1.703 3.953 3.241 5.844 4.955 1.252 1.134 2.343 2.454 3.499 3.694.114.123.198.282.282.43.338.592.866 1.155.969 1.785.373 2.278 2.073 4.067 2.189 6.448l.035.464c.486-.315.971-.632 1.448-.96-.271-.936-.507-1.886-.727-2.842-.267-1.157-.067-1.486 1.145-2.121.635.558.603 1.365.724 2.091.102.607.238 1.198.396 1.779l.85-.641c-.204-.778-.355-1.574-.458-2.367-.085-.669-.018-1.359-.018-2.038.766-.764 1.593-1.327 2.748-1.377.342 1.073.602 2.163.803 3.261l.649-.562c-.265-1.749-.327-3.478-.001-5.224.924-4.949 1.852-9.892 2.985-14.803.563-2.438.863-5.072.046-7.589-.405-1.244.058-2.627-1.079-3.817-.823-.86-1.069-2.283-1.896-3.298-.207-.254-.155-.719-.193-1.113 2.79 1.576 4.687 3.832 5.364 7.028.09.417.22.841.21 1.259-.076 3.415.07 6.841-.575 10.223-.225 1.174-.19 2.413-.525 3.549-.831 2.784-1.037 5.679-1.619 8.473l-1.801.829 1.661 1.466.028.523c.808-.819 1.586-1.666 2.346-2.53l-.312-.02c-.16-.013-.311-.125-.467-.19.207-1.609.202-1.648 1.465-1.818l1.135-.145c.388-.486.78-.969 1.153-1.467-1.102.043-2.208.034-3.343-.056l.305-1.485c1.392.465 2.674.465 3.932.289.279-.393.566-.779.835-1.178-1.286.237-2.584.177-3.958-.254-.112-.543-.333-1.039-.292-1.512.125-1.356.306-2.71.572-4.042.066-.324.624-.849.822-.794 1.224.347 2.354-.276 3.533-.238l1.066.052c.539.867.681 1.79.748 2.731.285-.505.565-1.014.836-1.528-.272-2.168-.439-4.348-.411-6.552.005-.423.031-.879-.103-1.269-1.154-3.271-.962-6.739-1.275-10.105-.393-4.244-.016-8.543.598-12.785.222-1.503.698-2.992.745-4.499.049-1.38.231-2.714.497-4.05.366-1.844.849-3.673 1.126-5.53.345-2.303.587-4.625.797-6.948-.32-.74-.646-1.477-.995-2.201-.425 1.54-.738 3.119-.876 4.778l-2.329 1.726c-1.792-.101-2.734-1.438-4.179-2.459 2.453-2.599 3.099-5.817 4.192-8.872.188-.023.373-.036.556-.041-.312-.519-.641-1.026-.969-1.535l-.082-.016c-3.498-.783-6.623-2.22-8.81-5.235-.349-.479-.803-.882-1.229-1.303-.683-.673-1.119-1.458-1.427-2.378-.714-2.13-1.484-4.234-2.423-6.254-.613-.471-1.237-.927-1.869-1.375.138.286.271.574.393.871.68 1.655 1.536 3.241 2.254 4.881.656 1.491 1.107 3.034 1.386 4.653.709 4.118 1.39 8.25 2.372 12.307.405 1.671 1.396 3.281 3.019 4.262 2.404 1.457 4.832 2.876 7.21 4.377.543.344.97.936 1.345 1.485.123.18-.095.592-.161.94-1.195-.662-2.282-1.154-3.229-2.036-.962-.896-2.342-1.336-3.532-1.992-2.088-1.155-3.481-2.862-4.558-5.017-1.88-3.765-3.046-7.78-4.465-11.706-.171-.479-.272-.989-.352-1.494-.581-3.66-2.098-7.019-3.367-10.454-.535-1.45-1.462-2.618-2.599-3.729l-.313-.303c-2.32-1.345-4.734-2.543-7.238-3.573-.184.579-.352 1.164-.487 1.759-.734 3.239-1.688 6.457-1.4 9.841l.576 6.374c.17 2.043.312 4.088.468 6.134.063.853.072 1.714.201 2.559.836 5.459-1.145 11.973-4.904 15.832-.586.6-1.289 1.186-2.055 1.49-3.9 1.561-7.859 2.862-12.161 2.799-4.414-.064-8.646.855-12.639 2.791-.69.334-1.426.568-2.138.856-1.74.71-3.466 1.461-5.221 2.132-3.129 1.193-6.004 2.848-8.809 4.651-.646.414-1.324.787-2.021 1.104-3.106 1.408-5.493 3.763-7.856 6.098-1.569 1.553-2.867 3.384-4.321 5.057-1.683 1.931-2.28 4.379-3.196 6.669-.139.347-.021.853.103 1.243.986 3.094 1.854 6.219 3.53 9.062.804 1.366 1.792 2.701 1.857 4.432.011.343.79.599 1.008 1.002.894 1.647 1.719 3.336 2.552 5.021.415.838.788 1.699 1.187 2.547.108.233.296.438.358.678.641 2.491 1.749 4.84 2.507 7.291.37.214.737.432 1.111.639l-.025-.107zm28.527 6.763c-.443-.252-.839-.383-1.097-.646-.942-.959-1.26-2.193-1.294-3.485-.028-1.097.025-2.199.086-3.293.1-1.72.204-1.794 2.542-1.911.101 3.15.843 6.144-.237 9.335zm53.501-78.681l.157.376-.148.169c-.063-.133-.132-.261-.17-.4l.161-.145zm-12.782-17.582c.761.342.985.779.531 1.438-.627-.328-.813-.773-.531-1.438zm.776 3.866c.259-.608.67-1.154 1.297-2.204.365.767.69 1.128.659 1.453-.045.483-.319.952-.545 1.404-.216.427-.272 1.022-.917 1.082-.47.043-.815-.977-.494-1.735zm2.257 8.581c-1.639-1.214-1.495-3.09-1.948-5.086 2.188-.438 1.64-2.767 3.115-3.724.473.246 1.022.477 1.497.811.251.176.5.527.534.823.164 1.611.371 3.281-.753 4.647-.728.887-1.044 2.211-2.445 2.529zm1.558.813c.359-.575.75-1.136 1.16-1.679 1.159-1.534 1.912-3.177 1.833-5.171-.038-.99.29-1.073 1.658-.525-.494 3.923-.923 4.785-4.12 8.375-.68-.065-.907-.396-.531-1zm-59.145 36.477c1.445-.219 1.725-.06 1.856 1.114.133 1.178.249 2.357.399 3.798l-1.777 1.091c-.938-1.992-.984-2.675-.478-6.003zm3.225-1.21l-.227-.452c-2.256.118-2.475-.099-1.977-2.274 2.064 1.434 4.425 1.013 6.513 1.773.25.604.595 1.284-.117 1.776-.854.588-1.073-.567-1.859-.791-.156.115-.401.312-.665.481-.936.615-1.152.546-1.668-.513zm.305 4.895c-.566-.914-.56-1.818-.104-2.913 1.02.153 1.312.69 1.383 1.43.092.878-.576 1.109-1.279 1.483zm1.583 8.705c-1.603-.741-1.638-.772-2.88-2.995l1.631-.865c1.686 2.145 1.712 2.232 1.249 3.86zm1.14-3.374c-.843-1.34-.843-1.34-.083-1.917.942 1.182.938 1.183.083 1.917zm-.424 4.697l1.021-.18.114 1.115-1.135-.935zm1.081-.272c.007-1.818.927-3.393 1.374-5.094.129-.488.493-.988.435-1.442-.21-1.639.96-1.7 2.194-2.142-.323 3.065-1.514 5.596-2.586 8.171l-1.417.507zm4.245 6.035c-2.619-2.94-2.846-3.612-1.75-5.586l.768 1.335c1.616 2.868 3.223 3.262 5.913 2.956 1.179-.135 2.35-.385 3.689-.613.057.367.208.7.123.956-.123.38-.333.827-.643 1.036-1.341.883-2.85 1.12-4.409.821-1.244-.242-2.467-.601-3.691-.905zm5.843 10.818c-.923-2.644-1.939-5.246-3.256-7.721-.069-.128-.008-.327-.008-.57l5.589-.827c.069 2.898 1.138 5.546 2.32 8.158-.811 1.571-2.616 1.188-3.771 2.241-.338-.483-.72-.843-.874-1.281zm7.652 4.801c-.753.013-1.511 0-2.305 0 .785-1.005 2.515-2.115 3.423-2.196.84-.085 1.413.371 1.903.976-1.316 1.184-1.323 1.191-3.021 1.22zm4.583 1.02c1.705-.154 3.363-.304 5.095-.457-.386 2.179-2.399 2.669-3.546 4.12-.918-1.087-1.401-2.205-1.549-3.663zm1.879 5.245c1.283-.805 1.307-.817 2.307-.834-.383.259-.743.558-1.152.753-.245.116-.574.048-1.155.081zm2.34-.859c-.093-.281-.36-.702-.261-.83 1.124-1.374 2.306-2.696 3.48-4.027.04-.05.164-.022.249-.03.062 1.163-1.07 2.756-3.468 4.887zm6.629-8.774c.231.043.484.205.634.392.257.319.44.701.762 1.225-.764.23-1.366.503-1.993.573-3.212.363-6.427.662-9.642.995-.935.098-1.637-.25-2.141-1.024.119-.273.149-.667.359-.821.323-.242.766-.4 1.172-.447 2.101-.227 4.21-.39 6.313-.608 1.011-.103 2.012-.306 3.021-.397.5-.045 1.021.021 1.515.112zm-2.647-2.999l-1.169 2.104c-2.416.215-4.857.424-7.542.659.638-1.781 1.337-2.985 2.423-4.012.733-.688 1.236-1.614 1.937-2.558 1.833.805 3.25 2.031 4.351 3.807zm-5.633-3.824c-.171.382-.433.733-.691 1.067-.366.473-.861.863-1.133 1.379-1.618 3.074-4.624 4.388-7.47 5.84-1.16.587-2.477 1.128-4.076.823l-.583-1.689c2.876-.368 5.199-1.743 7.554-3.094.766-.442 1.358-.995 1.93-1.611 1.261-1.365 2.505-2.745 3.728-4.089.84.232 1.038.714.741 1.374zm-7.23-5.731c1.805 1.121 3.524 2.01 5.106 3.253-1.073 1.626-1.868 3.326-3.477 4.394-2.487-2.364-2.741-3.443-1.629-7.647zm-3.098-2.075c1.989.587 2.076.688 1.845 2.182-.078.501-.22.999-.286 1.503-.312 2.331-.179 4.582 1.175 6.623.129.196.162.465.267.785l-1.074.887c-1.292-1.861-2.245-3.677-2.684-5.775-.439-2.098.485-4.001.757-6.205zm-1.552-2.577c.293.317.336.868.521 1.382-1.696.793-3.399 1.026-5.049 1.292-1.988.319-3.772-1.092-4.36-3.147-.232-.806-.399-1.63-.564-2.456-.049-.239-.027-.516.045-.75.531-1.704 1.071-3.4 1.634-5.09.072-.216.295-.38.534-.667.29.227.61.37.772.624 1.988 3.061 3.991 6.107 6.467 8.812zm2.176-5.047c-1.689-2.253-3.346-4.527-5-6.808-.077-.109-.008-.324-.008-.644.887-.557 1.938-.792 3.035-.752 1.019.04 2.042.157 3.052.326.383.065.811.296 1.076.582.979 1.064 1.9 2.182 2.904 3.355-1.35 1.618-1.57 3.908-3.845 5.054-.477-.429-.918-.719-1.214-1.113zm4.032-7.107c.476-.716 1.014-.859 1.369-.383.373.495.51 1.169.709 1.781.022.062-.217.216-.434.417-.735-.378-1.229-1.006-1.644-1.815zm-1.49 9.606c1.249-2.021 2.416-3.879 3.545-5.763.79-1.32 1.508-2.676 2.29-4.001.161-.272.419-.525.693-.678.188-.104.483-.021.727-.021.523.645.374 1.337.083 1.947-1.278 2.694-2.476 5.436-4.456 7.731-.488.568-.845 1.254-1.45 2.174l-1.432-1.389zm15.526-1.659c.206.463.398.94.496 1.432.035.169-.23.398-.486.796-1.962-1.636-3.794-3.043-4.794-5.194 1.005-2.029 1.942-4.025 2.978-5.968.369-.691 1.049-.772 1.82-.295-.161.834-.264 1.668-.486 2.468-.647 2.318-.505 4.562.472 6.761zm2.591-1.286c.325.824-.019 1.482-1.105 1.944-.892-1.87-1.513-3.542-1.312-5.554.187-1.883 1.373-3.299 1.699-5.137l1.96-.44c-.213.909-.295 1.563-.52 2.167-.503 1.377-.82 2.775-.92 4.248-.063.945-.168 1.842.198 2.772zm-6.689-5.162c-.417.721-.803 1.475-1.846 2.002-.165-.396-.388-.677-.322-.81.629-1.254 1.308-2.487 1.995-3.712.053-.092.355-.15.453-.087.176.117.377.318.411.511.142.809-.319 1.448-.691 2.096zm-2.238-1.811c-.049-.128-.117-.254-.139-.387-.006-.038.113-.098.172-.146l.155.162c-.044.131-.121.249-.188.371zm3.89 10.472c-.593-.25-1.047-.311-1.296-.566-1.305-1.344-2.975-2.336-3.938-4.001-.233-.405-.301-.907-.503-1.542 1.565.816 4.398 3.848 5.737 6.109zm-10.335 1.355c.014-.082-.002-.195.046-.239.105-.093.229-.165.349-.241l.04.533-.435-.053zm.486-.565c.535-.934 1.078-1.857 1.633-2.773.427-.708.868-1.404 1.298-2.099 1.33.772 1.564 1.141 1.053 1.904-.6.902-1.32 1.728-2.023 2.56-.543.644-1.232.69-1.961.408zm1.164 2.164c.716-.762 1.37-1.379 1.927-2.077.534-.665.947-1.421 1.45-2.111.341-.471 1.061-.686 1.337-.359 1.14 1.351 2.766 2.266 3.659 4.023l-3.347 3.593-5.026-3.069zm11.055 8.388l-2.571-2.163c.881-1.353.842-3.125 1.943-3.812l3.136 2.726c-.712 1.071-1.129 2.416-2.508 3.249zm5.907-4.098c1.573 1.448 3.261 2.625 5.285 3.317-.96.357-1.931.337-2.817-.221-2.071-1.312-4.29-2.412-6.045-4.19-.591-.597-1.045-1.276-1.698-1.987.425-.157.733-.369.833-.297 1.505 1.096 3.08 2.123 4.442 3.378zm-3.24-4.478l1.09-1.127c.747.103.809.374.49 1.908-.34-.084-.511-.092-.644-.167-.279-.158-.537-.35-.936-.614zm2.757 1.712c.236-1.564.854-2.915 2.361-3.655.265-.127.708-.221.892-.09.173.128.256.639.145.866-.695 1.425-1.455 2.819-2.233 4.303-.408-.194-.789-.266-.967-.493-.175-.228-.244-.629-.198-.931zm5.426 8.378l-1.644 1.05c-.955-.473-.825-1.16-.516-2.025l2.16.975zm-5.424 2.485c-.125-1.237-.238-2.481-.392-3.716-.092-.733.227-1.115.914-1.254 1.373 1.771 1.624 2.837 1.05 4.319-.306.792-.844.956-1.572.651zm-2.771-2.761c-.51.112-.776-.039-.683-.479.249-1.18.901-2.151 1.736-3.333.236.448.545.784.472.94-.473.999-1.027 1.956-1.525 2.872zm1.428 1.171c.557.459.307 1.542 1.253 1.626l-.552.698c-.92-.649-1.328-1.321-.701-2.324zm5.732 2.722l-3.696 2.453-.86-1.599c2.412-1.296 4.585-2.737 7.105-3.494.202-.062.467.083.824.158-.627 1.608-2.237 1.732-3.373 2.482zm2.264-4.464c-.553-.247-1.218-.586-.812-1.414.58.292 1.167.588 1.964.994-.486.191-.915.523-1.152.42zm1.997-1.871c-1.565-.009-2.706-.334-3.631-1.651.478-.33.84-.774 1.245-.815.732-.074 1.502.038 2.227.199.197.044.391.542.404.839.019.404-.134.824-.245 1.428zm.786-3.566c-2.247-.017-4.488-.36-6.537 1.298-.675-1.396-.428-2.38.12-3.265.663-1.082 1.441-2.087 2.209-3.182 1.68.173 3.269.338 5.038.523l-.83 4.626zm-1.296-5.989c-1.961-.145-3.829-.667-5.698-1.68-.205.07-.508.223-.831.281-3.867.689-6.462 3.307-8.93 6.029-.729.805-1.205 1.823-2.476 2.292-.099-.274-.356-.634-.265-.794.375-.657.775-1.341 1.32-1.848.999-.919 1.912-1.935 2.906-2.825 1.705-1.525 3.602-2.887 5.573-4.06 1.595-.95 3.448-.891 5.211-.25.963.351 1.902.767 2.833 1.188.461.208.862.583 1.337.719.426.122.916.026 1.83.026-1.094 1.054-1.988.981-2.81.922zm2.712-6.459c.386 1.074.511 1.773.396 2.386-.045.244-.105.529-.258.704-.216.245-.508.526-.8.576-.563.091-1.152.027-2.105.027.78-1.652 1.635-2.748 2.767-3.693zm-4.35 2.526c.61-1.92 1.167-2.596 3.737-4.455-.767 1.798-2.176 2.99-3.737 4.455zm3.516-7.355c-1.322 2.338-3.069 4.219-4.796 6.104-.305.334-.918.614-1.345.56-1.755-.222-3.338.487-5.068.8-1.605-3.485-.26-6.503.884-9.562l6.886-3.066c1.042 1.75 2.686 3.152 3.439 5.164zm-1.966-6.066c-.025-.077.155-.307.252-.316.448-.045.479.23.398.561-.324.239-.538.09-.65-.245zm-5.457 1.486c-.226.114-.472.264-.71.269-2.061.042-3.831 1.321-5.896 1.356-.312.004-.671.136-.925.324-.681.498-1.469.563-2.209.434-1.475-.25-2.91-.47-4.284.353-2.046.073-4.091.146-6.137.216-.504.018-1.01.014-1.517.024-.927.018-1.865.132-2.781.04-2.839-.277-5.636-.28-8.333.821-.55.224-1.108.423-1.642.684-2.991 1.466-5.983 2.925-8.954 4.425-.913.46-1.751 1.062-2.651 1.547-.127.067-.405-.149-.708-.269 1.285-1.781 2.982-2.931 4.716-3.977 3.947-2.374 8.328-3.339 12.863-3.894 2.809-.346 5.615-.518 8.433-.582 3.832-.085 7.587-.758 11.363-1.306 1.067-.156 2.178-.024 3.042-.024.873-.477 1.565-.946 2.324-1.252 2.93-1.188 5.884-2.314 8.82-3.486.547-.219 1.105-.473 1.561-.836 1.67-1.321 3.351-2.639 4.935-4.062 1.421-1.274 3.016-1.787 5-1.729v1.563c-.148.119-.262.289-.406.321-3.891.86-6.887 3.133-9.666 5.059-2.027 1.406-4.03 2.852-6.238 3.981zm-39.472 2.951l.605-.356.237.517c-.172.096-.351.268-.535.268-.1.002-.205-.277-.307-.429zm11.791-5.057c-1.065-1.331-2.105-2.683-3.133-4.042-.235-.31-.37-.695-.604-1.145.401-.081.638-.172.865-.159.146.01.322.144.419.273 1.913 2.49 3.817 4.991 5.929 7.756-.61.027-1.023.162-1.15.027-.811-.869-1.582-1.781-2.326-2.71zm.124 2.764c-.36.356-.676.284-.962-.11.311-.296.621-.506.974-.066.027.034.02.143-.012.176zm-.654-8.259c.976-.783 1.814-1.091 2.796-.738.678.779.404 1.616.163 2.43-.174.598-.502 1.09-1.304 1.138-.893-.681-1.215-1.738-1.655-2.83zm3.122 4.25c1.287-1.645 1.395-3.505 1.051-5.352.578-.466 1.039-.223 1.176.136.436 1.172.923 2.371 1.066 3.596.168 1.452-.986 2.642-2.362 2.791-.591.062-1.272-.737-.931-1.171zm3.685.925c.724-1.031.9-2.187.575-3.419-.327-1.229-.633-2.464-.927-3.621.543-.649 1.015-.567 1.229.044.704 2.012 1.379 4.032 1.981 6.076.441 1.494.384 1.511-.242 3.638-1.569.113-3.151 1.06-4.234-.762.547-.657 1.136-1.268 1.618-1.956zm-6.221-6.922c-1.521.43-3.11.475-4.781.221.078-.303.083-.675.198-.716.637-.216 1.295-.378 1.957-.508 2.255-.439 4.519-.827 6.764-1.305.547-.118 1.038-.505 1.587-.785l.479.729c-1.927 1.24-4.088 1.764-6.204 2.364zm-4.68 3.768c1.105.326 1.385 1.198 1.867 1.983l-1.867 1.091c-.434-1.076-.133-2.005 0-3.074zm2.028 3.663c.398-.237.779-.324 1.149.051.321.321.228.992-.23 1.332-.269.199-.569.37-.88.49-.791.307-1.596.577-2.7.971v-1.27c.924-.544 1.794-1.056 2.661-1.574zm33.024-15.096c.073.926-.122 1.401-.574 1.408-.631.008-.937-.437-1.06-.923-.465-1.881-.893-3.772-1.274-5.675-.042-.212.278-.653.507-.713.214-.061.678.178.771.395.72 1.691 1.938 3.246 1.528 5.024l.102.484zm-2.912-7.538c-.146-.166-.375-.308-.418-.496-.048-.22.068-.475.208-1.268.349.758.525.974.524 1.188-.004.192-.2.383-.314.576zm1.914 13.63c.537 1.347 1.012 2.723 1.449 4.103.178.546.185 1.147.304 1.97-1.613.186-2.332-.63-2.99-1.546-1.323-1.844-1.928-3.996-2.454-6.145-.525-2.156-.912-4.352-1.256-6.546-.384-2.443-.706-4.9-.965-7.362-.463-4.438-1.319-8.785-2.747-13.02-.645-1.906-1.784-3.486-3.239-4.837-.473-.44-.764-.854-.658-1.717.423.216.755.298.946.503 1.517 1.62 3.12 3.181 4.475 4.932 1.097 1.414 1.7 3.084 1.917 4.955.401 3.462 1.07 6.899 1.626 10.345.097.59.179 1.185.243 1.778.474 4.365 1.73 8.522 3.349 12.587zm1.026-.738l3.064-.843c.094.226.31.491.25.647-.402 1.075-.535 2.311-1.662 3.08-1.085-.743-.968-1.925-1.652-2.884zm-2.312 7.893c-.368.468-.869.757-1.477.204.191-.356.322-.774.602-1.048.141-.139.663-.127.796.017.159.17.212.659.079.827zm-12.572-1.872c-1.295-1.613-1.19-3.624.109-5.412.076-.109.3-.115.587-.215.042.6.144 1.165.111 1.725-.098 1.761.315 3.377 1.217 4.887.64 1.073 1.01 2.198.294 3.381-.15.251-.459.409-.713.625-.187-.249-.37-.389-.349-.483.387-1.735-.166-3.15-1.256-4.508zm.734-7.152c.006-.127.161-.249.252-.375l.247.374-.267.371c-.084-.123-.236-.248-.232-.37zm1.614.595c.486-1.338 1.294-1.746 2.619-1.205 1.479.604 3.194.685 4.538 2.041.256 2.686-1.399 4.892-2.389 7.28-.652 1.574-1.423 2.34-2.313 2.83-.136-.187-.366-.363-.406-.573-.246-1.374-.929-2.542-1.627-3.718-1.271-2.139-1.245-4.393-.422-6.655zm7.627 3.894c1.141 1.121 1.221 1.991.576 3.024-.578.93-1.03 1.938-1.577 2.992l-1.6.465c.598-2.393 1.711-4.249 2.601-6.481zm-1.523-7.457c-1.746-1.171-3.528-.505-4.913-1.392.573-3.339 1.425-4.695 3.662-5.78.563 2.209 1.069 4.387 1.251 7.172zm-3.675-6.895l-1.735 2.515c-.559.903-.507 2.142-1.497 2.902-.555-3.045 1.736-6.709 5.405-8.057-.307 1.512-1.626 1.753-2.173 2.64zm.288 7.09c.917.197 1.893.551 2.889 1.441-.667 0-1.042.106-1.312-.016-1.135-.505-2.309-.403-3.499-.45-2.094-.085-4.025.447-5.958 1.108-.471.16-.969.26-1.459.336-.109.017-.299-.167-.358-.298-.06-.136-.067-.373.014-.472.21-.254.445-.558.734-.662 2.898-1.059 5.881-1.641 8.949-.987zm-6.076 3.194c-.205.531-.408.978-.552 1.443-.684 2.204-.787 4.335.833 6.238.218.26.389.559.591.833.575.781.581 1.564.023 2.359-.293.415-.552.852-.855 1.26-.169.224-.753.043-.854-.241l-.091-.237c-.36-3.715-1.196-7.342-2.102-11.151 1.1-.372 1.901-.936 3.007-.504zm24.158 13.873c-1.268-1.691-3.024-2.58-4.016-4.366 2.217-1.5 4.174-3.136 6.551-4.135.798-.334 1.588-.657 2.596-.304.599 1.521.122 3.105-.071 4.678-.034.298-.275.649-.524.836-1.432 1.075-2.893 2.106-4.536 3.291zm2.467.483c-.187-.277-.197-.578.081-.816.693-.588 1.414-1.148 2.08-1.686.673.385.486.859.181 1.081-.737.533-1.557.955-2.342 1.421zm-1.169 1.629c.092-1.192.106-1.239 1.091-1.537l-1.091 1.537zm5.225 11.375c-.48.508-1.199.93-1.811.63-.855-.42-1.648-.17-2.472-.209-.16-.011-.454-.347-.425-.475.038-.193.34-.5.483-.475 1.459.25 2.778-.489 4.582-.617-.173.57-.178.944-.357 1.146zm-.012-3.16c-1.281 1.304-2.783 1.467-4.545 1.076l-.365-8.038c1.597-.502 1.716-2.619 3.598-2.843.149.294.394.573.429.874.312 2.959.588 5.922.883 8.931zm.558-35.078c.315 1.371-.144 2.472-.239 3.582-.106 1.19-.316 2.366-.442 3.552-.132 1.184-.188 2.376-.848 3.423-.866.138-1.705.198-2.5.417-1.244.349-2.24 1.088-3.178 2.013-1.27 1.253-2.701 2.343-4.107 3.446-.367.291-.897.374-1.522.617-.056-.565-.252-1.032-.109-1.332.444-.904 1.096-1.709 1.522-2.619.397-.843.604-1.769.969-2.892 2.723-1.167 4.655-3.589 6.742-5.817.98-1.048 1.768-2.274 2.669-3.401.25-.316.588-.565 1.043-.989zm-2.539-1.734l.814.734c-.012.197.039.4-.039.507-1.367 1.849-2.681 3.747-4.153 5.51-.974 1.172-2.165 2.163-3.289 3.202-.237.222-.589.34-.91.45-1.457.486-2.912.968-4.382 1.411-.308.094-.685.071-1.003-.013-.201-.053-.442-.292-.485-.487-.043-.187.09-.517.253-.622.272-.177.621-.27.947-.329 3.29-.585 5.616-2.462 7.629-5.09 1.361-1.788 2.281-4.024 4.618-5.273zm-5.337-3.492c.785.385 1.472.672 2.115 1.044.568.328 1.081.75 1.704 1.191-1.715 2.635-3.327 5.116-5.175 7.43-.225.282-.705.358-1.108.55-.906-2.219-1.758-4.308-2.65-6.488 1.088-.517 2.309-.427 3.047-1.424.598-.807 1.342-1.505 2.067-2.303zm-1.317-.324c-.74 1.074-1.613 1.983-3.018 2.167-.477.062-.935.238-1.412.365-.053-.288-.15-.523-.099-.567 1.337-1.049 2.688-2.077 4.041-3.115.587.202.883.578.488 1.15zm-1.465-2.276c-.816 1.56-2.047 2.305-3.647 2.598-1.123-1.876-.975-3.842-.769-5.797.142-1.35.455-1.911 1.393-2.967 1.309 1.948 1.939 4.167 3.023 6.166zm-4.198-7.04c-.408 1.204-1.017 2.319-1.21 3.626-.484 3.253.192 6.288 1.468 9.233.714 1.642 1.471 3.267 2.275 4.865.5.991.435 1.979.233 2.999-.188.932-.799 1.239-1.811 1.145-.094-2.782-1.263-5.242-2.279-7.776-1.82-4.536-1.671-9.156-.149-13.765.277-.831.729-1.473 1.834-1.96-.153.711-.214 1.185-.361 1.633zm-14.814-12.2c-.107-2.212-.433-4.437-.324-6.637.087-1.753.686-3.48 1.062-5.243.641-.149 1.203-.14 1.598-.402 1.429-.926 2.499-.364 3.667.557 2.231 1.758 3.706 3.934 4.431 6.692.607 2.302 1.761 4.421 2.247 6.786.463 2.245 1.124 4.448 1.754 6.89-1.152 2.013-2.647 4.115-2.936 6.744-.263 2.424-.671 4.841-.207 7.315l-.551.244c-.094-.229-.243-.447-.276-.685-.361-2.526-.747-5.05-1.038-7.585-.274-2.371-1.268-4.403-2.69-6.266-1.559-2.043-3.404-3.816-5.296-5.539-.869-.789-1.383-1.685-1.441-2.871zm-6.904 30.144c3.563-1.856 5.585-4.958 6.77-8.636.603-1.861 1.015-3.811 1.235-5.751.171-1.505-.049-3.063-.165-4.592-.081-1.088-.443-2.157-.221-3.346.323.093.646.085.765.235 1.048 1.35 2.04 2.714 2.57 4.392 1.005 3.176 1.897 6.367 2.185 9.704.066.762-.162 1.345-.697 1.827-.25.227-.537.428-.833.585-2.391 1.271-3.847 3.26-4.657 5.808-.327 1.035-.823 2.019-1.315 3.202-1.422.515-2.999 1.095-4.842 1.135l-1.237-4.002c.231-.301.304-.488.442-.561zm-2.898 1c.66-.208 1.199.021 1.461.64.134.312.214.646.33.969.634 1.75 1.273 3.5 1.916 5.247.791 2.151 1.135 4.459 1.797 6.662.561 1.871.465 3.656-.316 5.942-.385-.67-.65-.938-.69-1.237-.706-4.94-2.741-9.464-4.376-14.112-.339-.966-.642-1.947-.867-2.941-.125-.545.171-.989.745-1.17zm-3.368 1.017c.392-.108.82-.087 1.356-.139l1.097 4.116c-.333.773-.924.708-1.685.594-.533-.83-1.179-1.717-1.698-2.674-.501-.925-.143-1.598.93-1.897zm-3.004.538c1.138 1 .958 2.255 1.167 3.451-.192-.19-.457-.344-.562-.577-.349-.753-.654-1.533-.94-2.314-.034-.091.15-.266.335-.56zm-5.128.283h3.135c1.011 1.644 1.146 3.664 2.88 4.908-1.505 1.254-3.104.972-4.621 1.042-2.008-1.675-1.438-3.824-1.394-5.95zm-3.07 11.861c.231-1.569.472-3.125.581-4.711.034-.502.13-.951-.009-1.467-.427-1.597-.214-3.211.046-4.813.019-.132.207-.238.296-.334.503-.141.711.248.74.515.472 4.325.991 8.649.595 13.012-.037.419-.184.833-.313 1.239-.041.132-.189.23-.405.47-1.085-1.132-1.754-2.39-1.531-3.911zm-1.883-9.427c.261.155.512.327.788.51l-.264.262c-.238-.191-.463-.392-.694-.594l.17-.178zm1.536 2.901c-.702.329-.905.479-1.13.514-.317.049-.646.012-1.128.012l-.265-1.824c1.02.133 1.533.718 2.523 1.298zm-1.22 2.662c-.17.022-.368-.161-.553-.25.154-.152.291-.389.474-.435.169-.05.394.103.754.216-.314.233-.482.444-.675.469zm.366 1.939l-.27.171c-.031-.134-.075-.264-.079-.399-.003-.045.108-.095.166-.14l.183.368zm-3.82-8.255c.289.541.618.945.718 1.399.188.824.228 1.684.35 2.526.504 3.492 1.833 6.683 3.572 9.726.67 1.167 1.252 2.389 2 3.826-.703.255-1.166.457-1.648.58-.315.081-.663.044-1.064.063-.336-.523-.686-.996-.96-1.51-.513-.974-.975-1.976-1.47-2.96-.19-.38-.447-.729-.613-1.122-.198-.467-.443-.958-.471-1.453-.132-2.378-1.544-4.478-1.419-6.926.056-1.071-.24-2.164-.402-3.453l1.407-.696zm-1.127 10.558c.043.591.171 1.178.188 1.77.018.66-.048 1.327-.079 1.992-1.911.609-3.137-.858-4.819-1.105.091-1.055.296-2.054.226-3.033-.074-1.002-.415-1.984-.673-3.122.686-.84 1.419-.666 2.154-.362.647.27.81.853.825 1.469.036 1.364.027 2.729.047 4.093.01.594.023.594.846 1.421l.508-4.953c.73 1.053.721 1.053.777 1.83zm-1.259-9.511l.118 1.644-2.872-.209c.825-.808 1.721-1.022 2.754-1.435zm-2.438 2.933c.856.079 1.896-.049 2.315 1.087-1.417.182-2.812.378-4.214.521-.202.022-.431-.213-.658-.336.741-1.098 1.627-1.355 2.557-1.272zm-1.888-1.264c.105-.035.274.104.414.161l-.176.162c-.277.146-.558.282-.84.421l-.193-.314c.261-.146.515-.325.795-.43zm4.25 34.738c.384.364.828.656 1.091 1.062 1.895 2.928 4.372 5.446 5.991 8.564.338.651.539 1.374.865 2.227h-1.75c.255-3.692-2.245-5.864-4.489-8.12-.672-.672-1.761-.935-2.691-1.402-.011-.852.284-1.609.983-2.331zm-2.189 6.374c2.392.679 3.669 2.199 3.916 4.965-1.738-.152-3.119-.405-4.508-1.184.206-1.2-.658-2.555.592-3.781zm-.071-1.298c.792-1.229 1.371-1.525 2.224-1.071 2.438 1.284 4.709 4.248 4.541 7.396-.029.544-.54.547-1.089.38-.643-3.216-2.227-5.762-5.676-6.705zm.787-6.815c.019.447.136.862.039 1.221-.271.982-.511 2.001-.978 2.895-1.149 2.208-1.686 4.59-2.385 7.026-.044-.324-.126-.649-.122-.971.046-3.561 1.318-6.772 2.874-9.895.057-.117.288-.144.572-.276zm-5.78-6.044c1.284 1.356 2.552 2.73 3.826 4.097.449.483.589 1.053.354 1.656-.459 1.186-.966 2.356-1.488 3.619-3.468.635-6.745-.122-9.924-1.354-1.729-.669-2.45-2.207-2.854-4.095 1.698-.252 3.277-.482 4.857-.722 1.712-.261 3.348-.69 4.575-2.045.346-.385.5-.799.299-1.286.134.03.283.049.355.13zm1.139 12.52c-1.086.119-2.198.124-3.291.041-2.404-.179-4.67-.868-6.714-2.171-1.459-.93-2.75-1.99-3.132-3.839-.132-.647-.516-1.241-.924-2.171l1.394-.069c.717 1.167 1.368 2.241 2.033 3.305.624.998 1.596 1.5 2.684 1.803.98.274 1.972.505 2.955.767.983.26 1.951.573 2.941.792.798.178 1.62.251 2.433.373.276.529.3 1.097-.379 1.169zm-2.827-23.37c-.203 1.171-.199 2.382-.238 3.575-.034 1.092-.007 2.184-.007 3.606-2.523 1.815-5.594 1.984-8.69 2.554l-2.672-7.14c1.623-1.228 3.236-2.332 4.71-3.601 1.406-1.208 2.654-2.589 3.978-3.898l3.865 1.873c-.326 1.008-.764 1.997-.946 3.031zm-11.541 10.901c-1.164-2.22-2.326-4.442-3.567-6.812.457-.873 1.266-.847 2.131-1.058 1.206 1.823 2.132 3.78 2.528 5.965.175.97-.016 1.222-1.092 1.905zm13.534-17.346l-.709 2.065c-.751-.278-1.39-.464-1.976-.749-.683-.333-.647-1.259.018-1.667.834-.508 1.62-.353 2.667.351zm-3.346-7.042c.601.258.423.616.262.866-.357.558-.783 1.072-1.197 1.627l-2.051-.806c1.321-.745 2.19-1.236 2.986-1.687zm-2.354 3.767c-.23.36-.377.807-.683 1.012-.321.209-.798.274-1.199.252-.896-.052-1.6-.489-2.036-1.324 1.287-1.363 2.544-.885 3.918.06zm-8.071 2.155c2.145-1.493 3.196-1.402 5.597.438-.222.409-.355.961-.708 1.244-2.242 1.79-3.978 4.239-6.847 5.365-.836-.915-1.626-1.78-2.544-2.789 1.439-1.811 2.884-3.133 4.502-4.258zm-5.445 5.416c.82.787 1.389 1.556 1.771 2.472-1.559.745-1.559.745-3.135-1.204l1.364-1.268zm-2.817 3.047c.362-.076.757-.021 1.131.033.075.01.187.281.159.404-.116.535-.585.478-.968.476-.219-.003-.439-.162-.687-.262.133-.253.211-.616.365-.651zm1.212 1.903c1.622-.257 3.129-.821 4.579-1.557.834-.424 1.654-.885 2.465-1.351.44-.251.895-.503 1.273-.834 1.215-1.061 2.435-2.122 3.581-3.256 1.024-1.011 1.956-2.117 2.927-3.181 1.312-1.439 2.618-2.88 3.939-4.308.098-.106.305-.117.626-.227l.955 1.212c-1.34.664-1.966 1.868-2.854 2.836-1.593 1.738-3.521 3.129-5.063 4.958-1.076 1.278-2.602 2.178-3.928 3.247l-.207.151c-3.509 1.52-6.938 3.265-10.802 3.75-.162.02-.356-.225-1.011-.666 1.548-.348 2.523-.617 3.52-.774zm-.472 14.609c-.757.157-.866-.325-1.081-.667-1.59-2.504-2.102-5.398-2.917-8.18-.135-.458-.042-1.01.032-1.504.145-.936.633-1.492 1.66-1.649 1.685-.26 3.347-.656 5.271-1.044 1.462 2.466 3.453 4.604 3.084 7.747-2.083 1.812-4.593 3.075-6.049 5.297zm.626 2.366c.028-.363.01-.676.085-.968.064-.238.202-.477.366-.668 2.29-2.661 4.803-5.033 8.18-6.28.234-.084.552-.077.698-.234.835-.893 1.954-.959 3.043-1.145 1.009-.175 2.01-.389 3.02-.536.673-.099 1.382-.021 2.027-.199.604-.17 1.147-.569 1.697-.858.563.546 1.042.997.81 1.738-.367.137-.809.197-1.063.447-1.017 1.013-2.253 1.521-3.632 1.727-1.603.243-3.208.594-4.816.629-3.574.083-6.082 1.974-8.199 4.563-.591.727-1.089 1.475-2.216 1.784zm4.28 8.685c-.908-1.876-1.731-3.563-2.542-5.252-.357-.74-.313-1.436.058-2.199.919-1.901 2.275-3.383 4.104-4.62.442.626.992 1.169 1.266 1.83 1.15 2.752 3.51 4.029 6.012 5.218 2.075.985 4.317.905 6.5 1.219.576.083 1.156.139 1.824.22.058 1.106.156 2.095-.388 3.132l-1.765-.128c-1.614-.114-3.226-.23-4.843-.347-2.076-.151-4.046.48-6.061.796-.84.132-1.68.302-2.528.355-.498.03-1.008-.13-1.637-.224zm1.282 2.413c1.285-1.057 2.715-1.316 4.12-1.608 4.509-.932 8.929-.472 13.389.557 3.293.755 6.471 2.11 9.936 2.08.646-.004 1.296.248 2.049.397-.878.322-1.565 1.044-2.546.468-.184-.109-.502.009-.756.027-4.425.365-8.656-.619-12.794-1.991-2.565-.85-5.026-.679-7.536.024-1.477.417-2.949.854-4.435 1.243-.777.202-.892.088-1.427-1.197zm76.678-80.975c1.32.895 2.637 1.837 4.07 2.538-1.079-1.536-2.228-3.018-3.442-4.443l-.241.157c-.38-.26-.428-.575-.389-.884-.339-.385-.68-.769-1.029-1.146l-.024.095c-.846.314-1.159-.212-1.421-.591-.664-.962-1.337-1.923-1.967-2.909-.797-.733-1.609-1.449-2.445-2.139.943 1.596 1.93 3.167 2.868 4.767 1.045 1.787 2.352 3.425 4.02 4.555zm-44.379-12.435c-.317-.282-.61-.6-.874-.932-.844-1.066-1.969-2.035-2.425-3.252-.576-1.53-2.156-1.827-2.926-3.099-.579-.954-1.185-1.891-1.799-2.823-.421.051-.844.1-1.263.16l3.324 4.784c-1.074 1.523-2.439 1.556-3.916 1.756-.607-2.185-1.656-4.115-2.815-5.958-.41.083-.813.187-1.22.279 1.035 1.459 2.01 2.986 2.185 5.215-.683-.146-1.223-.101-1.427-.341-.425-.495-.805-1.108-.969-1.733-.249-.957-.899-1.833-.981-2.866-.396.098-.789.201-1.181.307-.107 1.096-.34 2.195-.692 3.337-.767.271-1.373.226-1.587-.489-.191-.646-.279-1.359-.284-2.102-.451.143-.894.299-1.338.453l-.196 2.426-5.013 2.229c-.295-.302-.653-.635-.976-.998l-.703-.802-.77.394c.336.402.671.805 1.018 1.198.336.379.59.838.825 1.293.901 1.747 1.781 3.508 2.668 5.264.497.99 1.073 1.936.931 3.143-.042.35.257.774.482 1.112 2.423 3.674 2.857 7.758 1.705 11.816-.888 3.131-1.648 6.255-2.154 9.457-.39 2.473-.5 4.906.608 7.254.585 1.237 1.093 2.511 1.646 3.762.444 1.003.903 1.999 1.317 2.912-.44.781-.977.695-1.304.237-.891-1.25-1.777-2.524-2.501-3.875-1.855-3.475-2.893-7.123-2.062-11.114.311-1.508.496-3.04.83-4.543.726-3.273 1.117-6.56.914-9.926-.289-4.798-1.539-9.234-4.468-13.131-.654-.87-1.066-1.907-1.557-2.886-.184-.366-.466-.681-.768-.985-.475.263-.943.535-1.41.811l.349.489c-.562.587-1.018 1.212-1.606 1.651-2.544 1.887-4.28 4.381-5.587 7.219-.173.377-.446.712-.697 1.104l-3.812-1.67-.026-.088c-.488.475-.965.96-1.437 1.452.092 2.209-.22 4.341-1.149 6.374-.14.303-.316.602-.524.863-.08.098-.337.161-.447.107-.208-.103-.479-.276-.523-.465-.071-.312-.06-.691.055-.989.512-1.336.785-2.697.914-4.075-.466.528-.933 1.055-1.381 1.6-.136.726-.342 1.441-.66 2.133-.349.762-.598.876-1.421.561-.242.33-.477.666-.712 1.001.875.289 1.738.613 2.576 1.01.653.309 1.079 1.143 1.74 1.381.69.249 1.482.168 2.135.679 2.011 1.581 4.087 3.086 6.066 4.703 1.385 1.134 2.653 2.41 3.98 3.616 1.924 1.749 4.207 2.867 6.771 3.823.063.457.154 1.033.22 1.612.053.492.072.987.113 1.576-.363.119-.687.341-.976.301-.669-.086-1.4-.157-1.964-.487-1.612-.939-3.144-2.021-4.729-3.015-.636-.403-.463-1.015-.561-1.853-1.041.319-1.759.198-2.356-.611-2.442-3.268-5.712-5.62-9.021-7.891-1.308-.898-2.721-1.752-4.422-1.878-.439-.031-.871-.203-1.299-.368-.362.577-.711 1.161-1.053 1.75.06.366-.082.686-.53 1.663-.079-.165-.124-.32-.155-.472-.552 1.003-1.078 2.023-1.574 3.062l.844-.89c-.348 1.273-.387 1.39-1.055 1.355-.221.469-.435.942-.643 1.419.56.315 1.117.638 1.664.982 1.224.774 2.456 1.541 3.646 2.363.318.216.533.616.714.971.041.082-.232.382-.416.492-.101.062-.348-.014-.47-.105-1.798-1.322-3.86-2.059-5.918-2.807-1.282 3.244-2.302 6.62-3.006 10.113l.47.144c-.306 1.21-.585 2.393-1.076 3.501-.12.869-.227 1.742-.309 2.622l.123-.213c.917-1.895 1.834-3.79 2.787-5.75.459.091.794.104 1.085.228.896.38 1.13.695 1.046 1.491-.053.499-.199.994-.353 1.474-.77 2.421-1.479 4.865-2.367 7.244-.437 1.166-.953 2.375-2.308 3.401l-.236-.186c.019.562.041 1.124.075 1.682.318.346.644.659 1.159.752.869.155 1.131.966 1.599 1.538.12.146.086.502.004.715-.08.211-.313.361-.546.61-.673-.406-1.353-.799-2.031-1.192.149 1.473.37 2.923.625 4.363.3-.502.612-1.023.943-1.603.435 1.756.072 3.151.261 4.496.199 1.416.369 2.833.585 4.519l-.003.001c.625 2.002 1.36 3.955 2.184 5.861l.33-.853c.565-1.463.382-2.839-.137-4.223-.207-.559-.443-1.114-.737-1.629-1.453-2.557-1.252-5.235-.683-7.965.599-2.872 1.973-5.445 3.075-8.125.223-.542.555-1.097.983-1.488 1.879-1.718 3.562-3.633 6.026-4.681 2.924-1.241 5.356-3.316 7.763-5.354 1.734-1.47 2.779-3.438 3.491-5.583.212-.639.44-1.274.639-1.853.706-.162.952.229.842.668-.204.815-.493 1.627-.852 2.387-1.097 2.298-1.905 4.746-3.716 6.667-1.783 1.889-3.712 3.515-6.24 4.312-.652.205-1.249.59-1.901.77-2.001.555-3.472 1.786-4.594 3.479-.319.484-.596 1.008-.816 1.543-.452 1.106-.813 2.252-1.282 3.348-1.066 2.506-1.35 5.079-.918 7.766.308 1.938.531 3.892.719 5.843.148 1.538.064 3.07-.471 4.554-.259.721-.486 1.455-.722 2.186.181.385.369.765.559 1.146.063-.163.117-.331.193-.488.743-1.552 1.272-3.136 1.536-4.898l3.941-1.32c.901 1.147 1.562 2.294 1.889 3.633.287 1.159.607 2.309.905 3.464.169.651.334 1.303.498 1.958.245.984.5 1.965.728 2.953.093.404-.006.938.22 1.214.86 1.043.582 2.029.105 3.107-.306.689-.473 1.446-.644 2.187-.11.486-.259.946-.452 1.379.28.314.562.625.849.933.465-.91.826-1.881 1.045-2.941.197-.953.845-1.828 1.36-2.696.226-.383.867-.339 1.102.009.441.644.798 1.276.426 2.126-.741 1.695-1.633 3.295-2.688 4.809.352.357.713.705 1.075 1.053.188-.169.401-.328.661-.477.218.502.318.952.314 1.407.833.768 1.681 1.518 2.556 2.239.566-.127 1.125-.325 1.673-.631.565 1.08.497 1.416-.285 1.586l-.137.028c1.134.885 2.292 1.739 3.49 2.542l-.146-.572c-.754-2.712-1.541-5.425-2.582-8.03-1.043-2.61-2.335-5.134-3.679-7.606-.763-1.408-1.863-2.628-2.783-3.952-.334-.483-.733-.989-.851-1.535-.515-2.421-.988-4.853-1.378-7.297-.301-1.892-.146-3.695 1.112-5.342.987-1.292 1.928-2.606 3.114-3.733 1.292-1.232 2.462-2.6 3.801-3.772 3.393-2.969 6.553-6.236 10.553-8.457 1.189-.66 2.295-1.477 3.504-2.089 4.904-2.479 10.122-4.056 15.452-5.308.745-.174 1.478-.433 2.198-.698 2.998-1.101 6.095-1.556 9.286-1.635 2.644-.065 5.238-.641 7.792-1.303 1.439-.372 2.381-1.421 3.326-2.627 2.795-3.566 3.746-7.696 3.76-12.007.009-3.225-.649-6.449-.992-9.677-.116-1.096-.216-2.199-.259-3.304-.048-1.279-.018-2.564-.029-3.846-.003-.257-.098-.521-.058-.767.685-4.302.753-8.722 2.242-12.875-1.861-.658-3.764-1.226-5.704-1.7.843.421 1.705.906 2.64 1.428-2.369 1.249-4.481.866-6.556.821-.295-1.632-.323-1.818.276-3.015-.451-.081-.899-.171-1.354-.242-.316.971-.659 1.948-1.082 3.196-.412-.341-.723-.468-.748-.64-.137-.959-.119-1.897.174-2.776-.417-.053-.832-.115-1.252-.159-.33 1.009-.685 2.043-1.068 3.195-.523-.292-1.056-.404-1.143-.668-.3-.91-.409-1.815-.389-2.738l-.892-.059-.091 1.829c-.015.33-.126.672-.269.974-.218.465-.645.441-1.033.458-.314-1.019-.502-2.167-.572-3.311l-.944-.024h-.019c.004.475.012.95.028 1.426.027.761-.056 1.538-.214 2.282-.048.233-.482.452-.779.542-.184.057-.542-.079-.657-.243-.894-1.274-1.781-2.552-2.656-3.838-.433.028-.867.056-1.298.096l.923 1.453c.641 1.01 1.38 1.956 2.067 2.94 1.269 1.821 2.537 3.643 3.789 5.474.058.087-.019.265-.032.397-.182.022-.41.112-.494.04zm-47.08 25.978c.241-1.502.618-2.981.973-4.658 1.662.704 2.958 1.707 4.143 2.91-.175 1.397-.331 2.753-.514 4.102-.118.894-.531 1.616-1.356 2.056-4.46-.713-3.708-1.513-3.246-4.41zm-2.04 5.225c.684-.318 1.096-.689 1.353-.602 1.013.346 1.979.834 2.926 1.254-.132.703-.579.908-.959.773-1.015-.358-1.988-.838-3.32-1.425zm2.049 2.64c-1.052.292-1.658.461-2.382.667.494-1.481.494-1.481 2.382-.667zm-4.272-7.102l-1.747-.952c-.025-.284-.092-.462-.042-.604.601-1.763 1.211-3.523 1.839-5.276.188-.526.53-.869 1.417-.58.806 2.718-.21 5.013-1.467 7.412zm1.123.937c.7-2.429 1.616-4.646 2.627-6.875.052.417.201.846.144 1.241-.248 1.681-.534 3.356-.861 5.022-.062.308-.366.566-.617.936l-1.293-.324zm-.798 3.991c.127.043.283.23.291.361.042.736-.324 1.186-1.016 1.366.093-.541.171-1.081.296-1.61.019-.077.306-.158.429-.117zm-.755 1.802c.097.122.23.242.229.358-.006.199-.129.397-.225.583-.015.029-.227.01-.233-.016-.062-.22-.141-.45-.113-.664.011-.099.213-.178.342-.261zm-3.052-2.91c.201-.731.699-.948 1.343-.726.628.216.908.709.761 1.386-.052.245-.135.487-.23.721-.32.774-.651 1.544-1.048 2.483-.478 0-.882.118-1.113-.035-.215-.141-.376-.584-.335-.861.152-.999.352-1.995.622-2.968zm-1.597-1.543c.054-.087.304-.053.545-.085.419 1.615-.735 2.724-1.237 4.564-.137-2.114.118-3.579.692-4.479zm-.75 7.64c-.312-.105-.601-.306-.876-.497-.122-.088-.171-.269-.322-.518 1.034-.23 2.017-.037 2.994.01 1.528.075 3.054.226 4.581.265 2.495.059 4.622-.965 6.567-2.412 1.411-1.048 2.189-2.569 2.857-4.146.255-.602.444-1.229.735-2.044 1.018 3.951-1.987 8.309-5.763 9.611-3.572 1.23-7.212.942-10.773-.269zm-.943 15.684c-.609-.417-.234-.918-.038-1.305 1.281-2.507 2.141-5.171 2.982-7.841.381-1.208.649-2.453.992-3.677.168-.594.378-.631 1.398-.253.051 3.882-2.657 10.533-5.334 13.076zm16.03-12.721c-1.673 1.436-3.417 2.793-5.492 3.651-1.75.725-3.225 1.868-4.58 3.186-.335.326-.5.934-1.339.807.587-2.83 1.991-5.386 2.497-8.347 3.088-.457 6.143-.9 8.505-3.112 1.18.249 2.179.613 3.06 1.386-.607 1.206-1.771 1.674-2.651 2.429zm3.55-3.718c-.862-.268-1.81-.522-2.51-1.21l.37-.496c.726.136 1.492.17 2.167.434.503.199.707.718-.027 1.272zm1.283-2.624c-1.248.047-1.248.049-2.644-.819.494-1.611.452-3.38.926-5.074.32.104.418.111.479.161 2.903 2.392 2.587 2.358 1.239 5.732zm-2.991 56.529c.089-.351.439-.637.84-1.179 1.849 3.1 1.888 4.021.378 5.833-.865-.797-1.051-1.908-1.342-2.921-.15-.525-.017-1.176.124-1.733zm15.084-68.201c-.863.35-1.814.151-2.182-.686-.356-.806-.747-1.439-1.53-1.903-.238-.14-.14-.848-.195-1.322 1.34-.058 2.073.639 2.713 1.44.394.503.541 1.151 1.376 1.277.444.067.303 1-.182 1.194zm1.068-7.994c-.301 1.565.332 3.229-.573 4.865-1.317-.775-2.594-1.532-4.037-2.387.938-2.286 2.034-4.098 3.906-5.68.461 1.241.888 2.262.704 3.202zm-4.101-11.913c.743 1.206 1.488 2.421 2.271 3.688-.689 1.658-2.176 2.618-3.253 3.894-1.132 1.344-1.633 2.979-2.521 4.599-1.765.045-3.008-.852-3.862-2.337-.23-.401-.301-1.006-.2-1.465.292-1.335.744-2.626 1.648-3.702.727-.865 4.473-3.861 5.917-4.677zm-8.037 5.504l.146-1.22c.272.441.502.878-.146 1.22zm.147 5.937l3.408 2.654c-1.329.644-2.096.125-2.876-.606-.71-.668-.738-.635-.532-2.048zm5.372-12.872c.227-.15.609-.077 1.027-.115-.078.41-.045.706-.179.858-.56.635-1.136 1.261-1.766 1.823-1.133 1.007-2.477 1.763-3.379 3.041-.276.393-.69.168-1.055.02.367-.556.804-1.07 1.137-1.638 1.022-1.742 2.594-2.897 4.215-3.989zm-10.001 8.461c.599.334.979.773 1.1 1.413-.187.115-.282.205-.317.188-.916-.499-1.823-1.008-2.99-1.66 1.027-.57 1.609-.274 2.207.059zm-.894 8.728c-1.071.151-1.636-.548-2.439-1.157.415-1.749.839-3.544 1.283-5.424 1.326-.191 1.76.663 2.457 1.181l-1.301 5.4zm3.804-1.734c-.125 1.24-.605 2.448-.935 3.699-.752.339-1.096-.117-1.305-.732-.105-.312-.163-.676-.114-.999.544-3.577 1.51-7.014 3.52-10.08.075-.112.205-.186.326-.268-.056.562-.042 1.144-.213 1.666-.72 2.188-1.05 4.431-1.279 6.714zm3.796 8.075c-1.402-.389-2.189-1.332-2.807-2.27-.361-.547-.239-1.468-.201-2.212.042-.842.233-1.67.414-2.854l3.399 1.168c.04 2.121.019 4.115-.805 6.168zm3.461-2.584c.004.763.065 1.528.086 2.292.023.839-.435 1.49-1.006 1.986-.495.432-1.092.358-1.579-.35.729-1.586.958-3.259 1.034-5.049.148-3.524 1.551-6.739 3.437-9.695.718-1.125 1.612-2.186 2.862-2.948l.732.823c-.498 1.031-1.15 1.905-1.915 2.691-1.517 1.557-2.481 3.441-3.221 5.446-.572 1.551-.44 3.189-.43 4.804zm.46 6.02c.72-1.902 1.031-3.875.669-6.344.944.738 1.476 1.27 2.108 1.617.656.355 1.412.534 2.217.824-.364 1.657-.703 3.207-1.05 4.796-1.527.554-2.723.125-3.944-.893zm-2.66 5.223c1.844 1.163 3.611 1.743 5.173 2.965-.832.948-2.005.603-2.738 1.124l-3.795-1.363 1.36-2.726zm-.23 4.578c2.059.854 4.143.583 6.237.213.248-.043.514-.251.719-.194.288.08.586.294.756.539.094.139.007.529-.136.665-.3.286-.661.602-1.044.688-1.557.351-3.097.907-4.743.322-.876-.314-1.832-.391-2.707-.7-.427-.15-.751-.587-1.239-.992.827-.825 1.51-.81 2.157-.541zm-20.28 25.832c1.397 1.031 2.02 1.958 2.489 3.192l-1.757.625c-.908-1.047-.734-2.213-.732-3.817zm1.135 6.257c-.102.007-.293-.181-.317-.301-.03-.134.045-.347.15-.445.605-.546 1.316-.629 2.23-.568-.458 1.07-1.236 1.251-2.063 1.314zm4.038-1.647c-1.316-2.185-2.854-4.192-4.76-5.904-.466-.417-.719-.912-.641-1.574.063-.561.048-1.126.066-1.751 3.414 1.469 5.739 5.303 6.1 10.005-.318-.316-.601-.509-.765-.776zm9.709-11.264c-.501-.722-.998-1.298-1.329-1.956-.571-1.137-.599-2.28.278-3.333.881-1.06 2-1.675 3.356-1.432 1.228.218 2.414.702 4.01 1.188-2.245 2.105-3.831 4.2-6.315 5.533zm7.429-6.135c-1.922-1.013-3.805-1.702-5.896-1.692-1.166.006-2.196.245-2.926 1.259-.196.274-.462.504-.722.725-.981.832-1.138 1.897-.763 3.03.422 1.279.959 2.519 1.537 4.014.03-.133.018.037-.046.184-.137.317-.304.626-.337.69-1.269-.123-1.839-.618-2.22-1.311-.662-1.199-1.147-2.453-1.168-3.866-.014-.897.173-1.686.712-2.396.465-.614.877-1.266 1.383-1.843.33-.376.732-.758 1.181-.948 3.493-1.458 6.918-1.762 10.366.985l-1.101 1.169zm8.357-4.924c-1.249.729-2.544 1.386-3.76 2.164-.856.551-1.698.772-2.659.415-.716-.268-1.497-.445-2.126-.849-2.112-1.356-4.398-1.239-6.693-.862-.999.165-2.089.404-2.902.956-3.011 2.035-4.803 5.028-3.336 8.953.269.719.47 1.481.85 2.138.332.573.869 1.022 1.355 1.575-.399 1.788-2.319 2.222-3.121 3.618-.315.546-1.151.677-2.009.485-.803-1.285-1.524-2.753-2.537-3.979-1.019-1.235-2.328-2.229-3.547-3.366.636-1.713 1.139-3.441 1.913-5.034.958-1.976 2.491-3.442 4.651-4.14.729-.235 1.462-.472 2.176-.754 2.854-1.129 5.104-3.045 7.004-5.415.371-.461.724-.938 1.109-1.444 2.111.381 3.936.793 5.786 1.022 1.354.164 2.735.09 4.038-.467.465-.198.954-.346 1.397-.507 1.466 1.188 2.48 2.748 3.188 4.885-.246.193-.488.439-.777.606zm21.557-44.15c.7 1.099.449 1.91-.069 2.593-1.249 1.634-2.78 2.951-4.71 3.74-.224.093-.497.113-.744.096-.138-.012-.317-.137-.382-.263-.066-.127-.027-.318-.009-.478.007-.076.062-.176.125-.209 2.116-1.051 3.528-2.833 4.901-4.667.197-.259.489-.451.888-.812zm-1.917-2.452l.849 1.173c-.776 1.497-1.438 2.969-2.739 4.006-.395.317-.797.651-1.25.871-.981.475-1.842.234-2.39-.722-.543-.951-1.241-1.855-1.242-3.38 1.242-.301 2.394-.541 3.519-.861 1.053-.304 2.085-.693 3.253-1.087zm-21.487.72c.047-.327-.001-.659.12-.746 1.518-1.101 3.099-1.947 5.072-2.087 2.361-.166 4.583.138 6.716 1.116 1.316.606 2.642.553 3.985.175 1.143-.323 2.274-.686 3.415-1.016.518-.151.792.107.903.643-.149.165-.277.431-.488.523-2.769 1.244-5.667 2.011-8.666 1.202-3.465-.938-6.851-.975-10.258.134-.213.068-.461.034-.799.056zm1.173 2.312c-.058-.139-.179-.288-.156-.413.037-.215.164-.416.316-.764.233.508.381.708.338.76-.126.167-.328.283-.498.417zm1.616 3.477l-.789-1.429c.589-1.22 1.568-2.197 1.853-3.555.132-.614.614-.594 1.661-.007-.525 1.825-1.02 3.667-2.725 4.991zm2.386 7.542c-.215-.823-.416-1.651-.651-2.47-.261-.902-.552-1.793-.839-2.723.952-2.224 1.899-4.478 2.889-6.719.162-.365.434-.777.769-.952.872-.451 2.719.444 2.835 1.453.227 1.988 1.24 3.706 1.76 5.738-.665.918-1.275 1.727-1.854 2.557-1.571 2.255-1.911 4.698-.975 7.272.669 1.842 1.434 3.645 2.156 5.464.15.379.312.756.561 1.355-.938.063-1.666.137-2.392.153-.768.019-1.547.062-2.299-.056-1.18-.182-1.991-.892-2.466-2.156 1.166-2.847 1.301-5.86.506-8.916zm13.558 15.924c-1.436-.781-2-1.61-2.041-2.841-.108-3.229-1.349-6.125-2.736-8.973-.336-.687-.677-1.381-.923-2.102-.131-.384-.122-.839-.074-1.252.027-.212.252-.54.421-.561.293-.042.646.057.91.208.197.112.363.378.432.61 1.342 4.391 3.183 8.633 4 13.182.085.471.011.968.011 1.729zm.428 2.583c.112.214.167.461.305.861-.209.15-.421.388-.683.466-.204.063-.484-.033-.703-.124-.617-.262-.874-.757-.729-1.404.043-.198.228-.456.41-.519.532-.179 1.099.132 1.4.72zm-6.278-20.58c-1.404.825-1.694 2.071-1.225 3.504.342 1.049.854 2.038 1.266 3.065.733 1.817 1.477 3.633 2.152 5.472.291.788.559 1.629.129 2.573-.95-.192-1.678-.573-2.083-1.573-.895-2.211-1.927-4.373-2.786-6.597-.363-.939-.528-1.985-.611-2.993-.177-2.209.995-3.647 2.872-4.784l.623.87c-.143.201-.208.389-.337.463zm-8.483 13.229c.146.039.284.116.425.176-.053.059-.118.177-.157.167-.141-.031-.275-.108-.413-.164l.145-.179zm-.794 2.119c.708.262 1.266.389 1.742.663 1.517.878 3.104 1.365 4.881 1.279.657-.029 1.352.163 1.985.379.673.229 1.153 1.08.827 1.639-.635 1.095-.382 2.293-.495 3.61-1.834-.457-3.108-1.712-4.704-2.222-1.535-.489-3.141-.779-4.597-1.753-.538-1.179.367-2.226.361-3.595zm1.043 12.496l-.099-1.482c2.23-.221 3.779.785 5.087 2.518-.809-.155-1.619-.304-2.428-.473-.813-.171-1.626-.358-2.56-.563zm2.466 4.377l-.84-2.318c1.763-.424 3.108.084 4.441.957-1.241.938-1.241.938-3.601 1.361zm8.509-2.436c-.639.24-1.291.445-1.961.672-.743-2.265-2.625-3.402-4.375-4.709-1.799-1.344-3.876-1.63-5.915-1.716-.826-1.56-.813-1.564-.34-3.042 1.288-.255 2.53.224 3.677.649 2.135.789 4.206 1.714 6.096 3.085 1.7 1.231 2.545 2.866 3.273 4.642-.21.195-.313.361-.455.419zm-1.565-8.636l1.771.994c.27 1.019.119 1.985-.02 3.038-2.082-.985-2.082-.985-1.751-4.032zm1.513-1.19c-.433-.218-.635-.252-.704-.364-.301-.518-.563-1.056-.844-1.583-.922-1.738-1.765-2.301-3.69-1.977-1.788.3-3.038-.555-4.379-1.321l.111-.547c1.867.127 3.732.247 5.595.386 1.664.123 2.824 1.068 3.768 2.353.395.541.78 1.089 1.307 1.828l-1.164 1.225zm2.036 9.114c-.838-1.608-.683-3.379-.594-5.128.035-.683.556-.975 1.272-.86 1.289.209 1.418.405 1.517 1.811.073 1.083.24 2.16.387 3.405-.906.464-1.566 1.048-2.582.772zm4.714-1.142c-.915-.584-1.193-1.562-1.358-2.564-.109-.673-.166-1.374-.112-2.048.072-.877-.031-1.682-.383-2.495-.235-.538-.335-1.156-.382-1.748-.312-3.957-1.463-7.702-2.667-11.456-.803-2.498-2.005-4.875-2.325-7.532-.053-.441-.652-.792-.842-1.247-1.155-2.749-2.463-5.448-2.997-8.72l1.532.001c1.352 2.089 2.426 4.283 3.373 6.58 1.399 3.404 2.611 6.856 3.694 10.368 1.315 4.264 2.14 8.637 2.694 13.042.252 1.986.632 3.99.605 6.019-.008.698.001 1.39-.832 1.8zm2.252-.345c.04-.766.098-1.339.088-1.911-.01-.46-.107-.916-.214-1.752 1.258 1.1 1.847 2.134 2.482 3.505l-2.356.158zm4.348-.542c-.097.1-.548.023-.68-.122-.46-.496-.968-1.003-1.243-1.604-.585-1.283-1.347-2.364-2.576-3.1-.16-.096-.174-.434-.43-1.137 2.308.997 3.616 2.439 4.833 3.961.256.316.41.767.458 1.174.032.267-.158.627-.362.828zm6.003-1.019c-.105.059-.493-.159-.584-.333-1.133-2.29-2.186-4.615-3.366-6.879-.704-1.352-1.495-2.682-2.411-3.898-2.072-2.748-2.482-5.733-1.531-8.961.577-1.958 1.224-3.895 1.828-5.848.224-.73.416-1.47.712-2.536l1.713 1.155c-.374.879-.688 1.656-1.029 2.425-.484 1.092-.917 2.214-1.494 3.257-1.826 3.284-.376 6.294.851 9.239.576 1.382 1.769 2.495 2.599 3.785.783 1.218 1.468 2.5 2.177 3.767.723 1.289.884 2.743 1.107 4.164.034.196-.326.521-.572.663zm-7.874-34.939c.614.459 1.223.932 1.821 1.41 1.726 1.385 3.313 3.002 5.205 4.106 1.872 1.094 4.045 1.675 6.157 2.51-.073.901-.136 1.735-.195 2.503-.789.531-1.282-.084-1.672-.364-1.946-1.402-4.075-2.471-6.184-3.576-2.569-1.348-4.413-3.459-6.06-5.763-.267-.37-.293-.914-.565-1.842.755.511 1.134.75 1.493 1.016zm-.443-2.573l1.277-1.634c.245.329.439.543.579.79.436.787 1.126 1.596-.048 2.359-.874-.082-1.311-.683-1.808-1.515zm5.924 4.987c-.945-.189-1.408-.898-2.07-1.495.046-.889.189-1.806.114-2.704-.066-.799-.376-1.579-.583-2.373.86-.578 1.497-.158 2.252.312-.2 2.002 1.058 3.986.287 6.26zm7.753 3.866c-2.347-.873-4.314-1.604-6.341-2.362.07-.702.168-1.285.179-1.868.014-.838.117-1.664-.355-2.481-.56-.981-.531-2.093-.384-3.332 2.583-.064 5.043.959 7.501-.178.557 1.193.202 2.245-.008 3.294-.435 2.165-.906 4.327-.592 6.927zm-1.298 25.353c-.317.651-.949 1.151-1.566 1.87-.278-.361-.55-.571-.639-.841-1.291-3.983-3.894-7.185-6.22-10.554-.238-.343-.603-.662-.676-1.039-.323-1.674-.586-3.361-.815-5.051-.054-.405.015-.877.177-1.25.944-2.18 1.937-4.338 2.98-6.659 3.218 1.175 5.626 3.124 8.354 4.667.125.634.297 1.297.372 1.966.211 1.949.346 3.905.581 5.849.485 3.995-.854 7.565-2.548 11.042zm-14.652-36.793l-.799-1.385c.761-.866 1.655-1.229 2.734-1.243 1.977-.031 3.886.4 5.81.771.566.109 1.16.158 1.736.136 2.533-.107 5.065-.248 7.7-.381v1.19c-1.959 2.016-4.407 1.865-6.723 1.249-3.459-.915-6.878-1.131-10.458-.337zm2.445 8.858c.603.597 1.137 1.262 1.712 1.914-.183 1.309-.47 2.51-.935 3.725-.878 2.305-1.667 4.674-2.156 7.086-.482 2.4.127 4.736 1.394 6.873 1.344 2.27 2.721 4.523 3.951 6.855.82 1.559 1.41 3.239 2.162 5l-1.698.771c-.854-2.884-2.625-3.986-5.007-6.073-2.302-.887-2.885-2.782-3.262-5.019-.764-4.542-1.811-9.029-3.453-13.357-.479-1.264-.833-2.579-1.272-3.962 2.604-1.535 5.005-3.133 6.715-5.586.993.298 1.273 1.199 1.849 1.773zm53.82 42.394c1.042-.231 2.082-.339 3.122-.375-.014-.401-.02-.803-.041-1.202l-3.729.346c-.122.898.106 1.353.648 1.231zm-2.507 27.147l.02.02.036-.079-.056.059zm.801-33.576c-.861 5.163-.952 10.382-.926 15.579.023 4.688.501 9.375.782 14.064.014.255 0 .532.09.761.154.382.219.745.222 1.093.314-.744.605-1.499.89-2.258l-.292-.081c-.421-3.464-.79-6.994-.71-10.421.244-.271.337-.456.478-.506 1.43-.515 2.677-1.25 3.807-2.129.079-.596.166-1.189.228-1.79-.199.194-.396.39-.602.575-.724.648-1.732 1.001-2.637 1.433-.181.088-.472-.061-1.114-.167.457-.282.661-.436.885-.54 1.428-.669 2.58-1.636 3.581-2.767.059-.752.109-1.506.139-2.266-1.129 2.042-2.025 2.635-4.387 3.464-.564-1.841-.576-2.76-.045-4.164 1.35-.291 2.751-.127 4.461-.448.009-.429.032-.854.032-1.285l-.001-.03-4.724-.079c.249-4.056.557-7.785 1.245-11.637.879.201 1.696.494 2.475.846-.085-.465-.164-.933-.26-1.394-.308-.169-.615-.339-.914-.521-.333-.207-.588-.581-.824-.916-.179-.254.145-.781.454-.729.275.047.558.112.83.198-.158-.648-.33-1.29-.509-1.929l-.8-.751c.148-.172.305-.309.466-.424-.218-.721-.455-1.433-.699-2.142-.328 2.021-.32 4.107-1.122 6.047-.092.218-.019.493-.043.741-.142 1.524-.205 3.063-.456 4.573z"/></svg>